<?xml version="1.0" encoding="utf-8"?>
<!-- Generator: Adobe Illustrator 16.0.0, SVG Export Plug-In . SVG Version: 6.00 Build 0)  -->
<!DOCTYPE svg PUBLIC "-//W3C//DTD SVG 1.1//EN" "http://www.w3.org/Graphics/SVG/1.1/DTD/svg11.dtd" [
	<!ENTITY ns_extend "http://ns.adobe.com/Extensibility/1.0/">
	<!ENTITY ns_ai "http://ns.adobe.com/AdobeIllustrator/10.0/">
	<!ENTITY ns_graphs "http://ns.adobe.com/Graphs/1.0/">
	<!ENTITY ns_vars "http://ns.adobe.com/Variables/1.0/">
	<!ENTITY ns_imrep "http://ns.adobe.com/ImageReplacement/1.0/">
	<!ENTITY ns_sfw "http://ns.adobe.com/SaveForWeb/1.0/">
	<!ENTITY ns_custom "http://ns.adobe.com/GenericCustomNamespace/1.0/">
	<!ENTITY ns_adobe_xpath "http://ns.adobe.com/XPath/1.0/">
]>
<svg version="1.1" id="Слой_1" xmlns:x="&ns_extend;" xmlns:i="&ns_ai;" xmlns:graph="&ns_graphs;"
	 xmlns="http://www.w3.org/2000/svg" xmlns:xlink="http://www.w3.org/1999/xlink" x="0px" y="0px" width="700px" height="242px"
	 viewBox="0 0 700 242" enable-background="new 0 0 700 242" xml:space="preserve">
<metadata><?xpacket begin="﻿" id="W5M0MpCehiHzreSzNTczkc9d"?>
<x:xmpmeta xmlns:x="adobe:ns:meta/" x:xmptk="Adobe XMP Core 5.3-c011 66.145661, 2012/02/06-14:56:27        ">
   <rdf:RDF xmlns:rdf="http://www.w3.org/1999/02/22-rdf-syntax-ns#">
      <rdf:Description rdf:about=""
            xmlns:dc="http://purl.org/dc/elements/1.1/">
         <dc:format>image/svg+xml</dc:format>
         <dc:title>
            <rdf:Alt>
               <rdf:li xml:lang="x-default">Печать</rdf:li>
            </rdf:Alt>
         </dc:title>
      </rdf:Description>
      <rdf:Description rdf:about=""
            xmlns:xmp="http://ns.adobe.com/xap/1.0/"
            xmlns:xmpGImg="http://ns.adobe.com/xap/1.0/g/img/">
         <xmp:MetadataDate>2017-03-22T01:01:55+03:00</xmp:MetadataDate>
         <xmp:ModifyDate>2017-03-22T01:01:55+03:00</xmp:ModifyDate>
         <xmp:CreateDate>2017-03-22T01:01:55+03:00</xmp:CreateDate>
         <xmp:CreatorTool>Adobe Illustrator CS6 (Macintosh)</xmp:CreatorTool>
         <xmp:Thumbnails>
            <rdf:Alt>
               <rdf:li rdf:parseType="Resource">
                  <xmpGImg:width>256</xmpGImg:width>
                  <xmpGImg:height>92</xmpGImg:height>
                  <xmpGImg:format>JPEG</xmpGImg:format>
                  <xmpGImg:image>/9j/4AAQSkZJRgABAgEASABIAAD/7QAsUGhvdG9zaG9wIDMuMAA4QklNA+0AAAAAABAASAAAAAEA&#xA;AQBIAAAAAQAB/+4ADkFkb2JlAGTAAAAAAf/bAIQABgQEBAUEBgUFBgkGBQYJCwgGBggLDAoKCwoK&#xA;DBAMDAwMDAwQDA4PEA8ODBMTFBQTExwbGxscHx8fHx8fHx8fHwEHBwcNDA0YEBAYGhURFRofHx8f&#xA;Hx8fHx8fHx8fHx8fHx8fHx8fHx8fHx8fHx8fHx8fHx8fHx8fHx8fHx8fHx8f/8AAEQgAXAEAAwER&#xA;AAIRAQMRAf/EAaIAAAAHAQEBAQEAAAAAAAAAAAQFAwIGAQAHCAkKCwEAAgIDAQEBAQEAAAAAAAAA&#xA;AQACAwQFBgcICQoLEAACAQMDAgQCBgcDBAIGAnMBAgMRBAAFIRIxQVEGE2EicYEUMpGhBxWxQiPB&#xA;UtHhMxZi8CRygvElQzRTkqKyY3PCNUQnk6OzNhdUZHTD0uIIJoMJChgZhJRFRqS0VtNVKBry4/PE&#xA;1OT0ZXWFlaW1xdXl9WZ2hpamtsbW5vY3R1dnd4eXp7fH1+f3OEhYaHiImKi4yNjo+Ck5SVlpeYmZ&#xA;qbnJ2en5KjpKWmp6ipqqusra6voRAAICAQIDBQUEBQYECAMDbQEAAhEDBCESMUEFURNhIgZxgZEy&#xA;obHwFMHR4SNCFVJicvEzJDRDghaSUyWiY7LCB3PSNeJEgxdUkwgJChgZJjZFGidkdFU38qOzwygp&#xA;0+PzhJSktMTU5PRldYWVpbXF1eX1RlZmdoaWprbG1ub2R1dnd4eXp7fH1+f3OEhYaHiImKi4yNjo&#xA;+DlJWWl5iZmpucnZ6fkqOkpaanqKmqq6ytrq+v/aAAwDAQACEQMRAD8A9U4q7FXYq7FXYq7FXYq7&#xA;FXYq7FXYq7FXYq7FXYq7FXYq7FXYq7FXYq7FXYq7FXYq7FXYq7FXYq7FXYq7FXYq7FXYq7FXYq7F&#xA;XYq7FXYq7FXYq7FXYq7FXYq7FXYq7FXYq7FXYq7FXYq7FXYq7FXYq7FXYq7FXYq7FXYq7FXYq7FX&#xA;Yq7FXYq7FXYq7FXYq7FXYq7FXYq7FXYq7FXYq7FXYq7FXYq7FXYq7FXYq7FXYq7FXYq7FXYq7FXY&#xA;q7FXYq7FXYq7FXYq7FXYq7FXYq7FXYq7FXYq7FXYq7FXYq7FXYq7FXYq7FXYq7FXYq7FXYq7FXYq&#xA;7FXYq7FXYq7FXYq7FXYq7FXYq7FXYq7FXYq7FXYq7FXYq7FXYq7FXYq7FXYq7FXYq7FXYq7FXYq7&#xA;FXYq7FXYq7FXYq7FXYq7FXYq7FXYq7FXYq7FXYq7FXYq7FXYq7FXYq7FXYq7FXYq7FXYq7FXYq7F&#xA;XYq7FXYq7FXYq7FXYq7FXYq7FXYq7FXYq7FXYq7FXYq7FXYq7FXYq7FXYq7FXYq7FXYq7FXYq7FX&#xA;Yq7FXYq7FXYq7FXYq7FXYq7FXYq7FXYq7FXYq7FXYq7FXYq7FXYq7FXYq7FXYq7FXYq7FXYq7FXY&#xA;q7FXYq7FXYq7FXYq7FXYq7FXYq7FXYq7FXYq7FXYq7FXYq7FXYq7FXYq7FXYq7FXYq7FXYq7FXYq&#xA;7FXYq7FXYq7FXYq7FXYq7FXYq7FXYq7FXYq7FXYq7FXYq7FXYq7FXYq7FXYq7FXYq7FXYq7FXYq7&#xA;FXYq7FXYq7FXYq7FXYq7FXYq7FXYq7FXYq7FXYq7FXYq7FXYq7FXYq7FXYq7FXYq7FXYq7FXYq7F&#xA;XYq7FXYq7FXYq7FXYq7FXYq7FXYq7FXYq7FXYq7FXYq7FXYq7FXYq7FXYq7FXYq7FXYq7FXYq7FX&#xA;Yq7FXYq7FXYq7FXYq7FXYq7FXYq7FX//2Q==</xmpGImg:image>
               </rdf:li>
            </rdf:Alt>
         </xmp:Thumbnails>
      </rdf:Description>
      <rdf:Description rdf:about=""
            xmlns:xmpMM="http://ns.adobe.com/xap/1.0/mm/"
            xmlns:stRef="http://ns.adobe.com/xap/1.0/sType/ResourceRef#"
            xmlns:stEvt="http://ns.adobe.com/xap/1.0/sType/ResourceEvent#">
         <xmpMM:InstanceID>xmp.iid:0380117407206811822AA2812FB95782</xmpMM:InstanceID>
         <xmpMM:DocumentID>xmp.did:0380117407206811822AA2812FB95782</xmpMM:DocumentID>
         <xmpMM:OriginalDocumentID>uuid:5D20892493BFDB11914A8590D31508C8</xmpMM:OriginalDocumentID>
         <xmpMM:RenditionClass>proof:pdf</xmpMM:RenditionClass>
         <xmpMM:DerivedFrom rdf:parseType="Resource">
            <stRef:instanceID>uuid:ed609a61-4e0b-e047-bd4d-722efb68a6ed</stRef:instanceID>
            <stRef:documentID>xmp.did:0980117407206811822A897E387FE54C</stRef:documentID>
            <stRef:originalDocumentID>uuid:5D20892493BFDB11914A8590D31508C8</stRef:originalDocumentID>
            <stRef:renditionClass>proof:pdf</stRef:renditionClass>
         </xmpMM:DerivedFrom>
         <xmpMM:History>
            <rdf:Seq>
               <rdf:li rdf:parseType="Resource">
                  <stEvt:action>saved</stEvt:action>
                  <stEvt:instanceID>xmp.iid:0380117407206811822AA2812FB95782</stEvt:instanceID>
                  <stEvt:when>2017-03-22T01:01:55+03:00</stEvt:when>
                  <stEvt:softwareAgent>Adobe Illustrator CS6 (Macintosh)</stEvt:softwareAgent>
                  <stEvt:changed>/</stEvt:changed>
               </rdf:li>
            </rdf:Seq>
         </xmpMM:History>
      </rdf:Description>
      <rdf:Description rdf:about=""
            xmlns:illustrator="http://ns.adobe.com/illustrator/1.0/">
         <illustrator:StartupProfile>Print</illustrator:StartupProfile>
      </rdf:Description>
      <rdf:Description rdf:about=""
            xmlns:xmpTPg="http://ns.adobe.com/xap/1.0/t/pg/"
            xmlns:stDim="http://ns.adobe.com/xap/1.0/sType/Dimensions#"
            xmlns:xmpG="http://ns.adobe.com/xap/1.0/g/">
         <xmpTPg:HasVisibleOverprint>False</xmpTPg:HasVisibleOverprint>
         <xmpTPg:HasVisibleTransparency>False</xmpTPg:HasVisibleTransparency>
         <xmpTPg:NPages>1</xmpTPg:NPages>
         <xmpTPg:MaxPageSize rdf:parseType="Resource">
            <stDim:w>700.000000</stDim:w>
            <stDim:h>242.000000</stDim:h>
            <stDim:unit>Pixels</stDim:unit>
         </xmpTPg:MaxPageSize>
         <xmpTPg:SwatchGroups>
            <rdf:Seq>
               <rdf:li rdf:parseType="Resource">
                  <xmpG:groupName>Группа образцов по умолчанию</xmpG:groupName>
                  <xmpG:groupType>0</xmpG:groupType>
                  <xmpG:Colorants>
                     <rdf:Seq>
                        <rdf:li rdf:parseType="Resource">
                           <xmpG:swatchName>Белый</xmpG:swatchName>
                           <xmpG:mode>RGB</xmpG:mode>
                           <xmpG:type>PROCESS</xmpG:type>
                           <xmpG:red>255</xmpG:red>
                           <xmpG:green>255</xmpG:green>
                           <xmpG:blue>255</xmpG:blue>
                        </rdf:li>
                        <rdf:li rdf:parseType="Resource">
                           <xmpG:swatchName>Черный</xmpG:swatchName>
                           <xmpG:mode>RGB</xmpG:mode>
                           <xmpG:type>PROCESS</xmpG:type>
                           <xmpG:red>35</xmpG:red>
                           <xmpG:green>31</xmpG:green>
                           <xmpG:blue>32</xmpG:blue>
                        </rdf:li>
                        <rdf:li rdf:parseType="Resource">
                           <xmpG:swatchName>CMYK красный</xmpG:swatchName>
                           <xmpG:mode>RGB</xmpG:mode>
                           <xmpG:type>PROCESS</xmpG:type>
                           <xmpG:red>237</xmpG:red>
                           <xmpG:green>28</xmpG:green>
                           <xmpG:blue>36</xmpG:blue>
                        </rdf:li>
                        <rdf:li rdf:parseType="Resource">
                           <xmpG:swatchName>CMYK желтый</xmpG:swatchName>
                           <xmpG:mode>RGB</xmpG:mode>
                           <xmpG:type>PROCESS</xmpG:type>
                           <xmpG:red>255</xmpG:red>
                           <xmpG:green>242</xmpG:green>
                           <xmpG:blue>0</xmpG:blue>
                        </rdf:li>
                        <rdf:li rdf:parseType="Resource">
                           <xmpG:swatchName>CMYK зеленый</xmpG:swatchName>
                           <xmpG:mode>RGB</xmpG:mode>
                           <xmpG:type>PROCESS</xmpG:type>
                           <xmpG:red>0</xmpG:red>
                           <xmpG:green>166</xmpG:green>
                           <xmpG:blue>81</xmpG:blue>
                        </rdf:li>
                        <rdf:li rdf:parseType="Resource">
                           <xmpG:swatchName>CMYK голубой</xmpG:swatchName>
                           <xmpG:mode>RGB</xmpG:mode>
                           <xmpG:type>PROCESS</xmpG:type>
                           <xmpG:red>0</xmpG:red>
                           <xmpG:green>174</xmpG:green>
                           <xmpG:blue>239</xmpG:blue>
                        </rdf:li>
                        <rdf:li rdf:parseType="Resource">
                           <xmpG:swatchName>CMYK синий</xmpG:swatchName>
                           <xmpG:mode>RGB</xmpG:mode>
                           <xmpG:type>PROCESS</xmpG:type>
                           <xmpG:red>46</xmpG:red>
                           <xmpG:green>49</xmpG:green>
                           <xmpG:blue>146</xmpG:blue>
                        </rdf:li>
                        <rdf:li rdf:parseType="Resource">
                           <xmpG:swatchName>CMYK пурпурный</xmpG:swatchName>
                           <xmpG:mode>RGB</xmpG:mode>
                           <xmpG:type>PROCESS</xmpG:type>
                           <xmpG:red>236</xmpG:red>
                           <xmpG:green>0</xmpG:green>
                           <xmpG:blue>140</xmpG:blue>
                        </rdf:li>
                        <rdf:li rdf:parseType="Resource">
                           <xmpG:swatchName>C=15 M=100 Y=90 K=10</xmpG:swatchName>
                           <xmpG:mode>RGB</xmpG:mode>
                           <xmpG:type>PROCESS</xmpG:type>
                           <xmpG:red>190</xmpG:red>
                           <xmpG:green>30</xmpG:green>
                           <xmpG:blue>45</xmpG:blue>
                        </rdf:li>
                        <rdf:li rdf:parseType="Resource">
                           <xmpG:swatchName>C=0 M=90 Y=85 K=0</xmpG:swatchName>
                           <xmpG:mode>RGB</xmpG:mode>
                           <xmpG:type>PROCESS</xmpG:type>
                           <xmpG:red>239</xmpG:red>
                           <xmpG:green>65</xmpG:green>
                           <xmpG:blue>54</xmpG:blue>
                        </rdf:li>
                        <rdf:li rdf:parseType="Resource">
                           <xmpG:swatchName>C=0 M=80 Y=95 K=0</xmpG:swatchName>
                           <xmpG:mode>RGB</xmpG:mode>
                           <xmpG:type>PROCESS</xmpG:type>
                           <xmpG:red>241</xmpG:red>
                           <xmpG:green>90</xmpG:green>
                           <xmpG:blue>41</xmpG:blue>
                        </rdf:li>
                        <rdf:li rdf:parseType="Resource">
                           <xmpG:swatchName>C=0 M=50 Y=100 K=0</xmpG:swatchName>
                           <xmpG:mode>RGB</xmpG:mode>
                           <xmpG:type>PROCESS</xmpG:type>
                           <xmpG:red>247</xmpG:red>
                           <xmpG:green>148</xmpG:green>
                           <xmpG:blue>30</xmpG:blue>
                        </rdf:li>
                        <rdf:li rdf:parseType="Resource">
                           <xmpG:swatchName>C=0 M=35 Y=85 K=0</xmpG:swatchName>
                           <xmpG:mode>RGB</xmpG:mode>
                           <xmpG:type>PROCESS</xmpG:type>
                           <xmpG:red>251</xmpG:red>
                           <xmpG:green>176</xmpG:green>
                           <xmpG:blue>64</xmpG:blue>
                        </rdf:li>
                        <rdf:li rdf:parseType="Resource">
                           <xmpG:swatchName>C=5 M=0 Y=90 K=0</xmpG:swatchName>
                           <xmpG:mode>RGB</xmpG:mode>
                           <xmpG:type>PROCESS</xmpG:type>
                           <xmpG:red>249</xmpG:red>
                           <xmpG:green>237</xmpG:green>
                           <xmpG:blue>50</xmpG:blue>
                        </rdf:li>
                        <rdf:li rdf:parseType="Resource">
                           <xmpG:swatchName>C=20 M=0 Y=100 K=0</xmpG:swatchName>
                           <xmpG:mode>RGB</xmpG:mode>
                           <xmpG:type>PROCESS</xmpG:type>
                           <xmpG:red>215</xmpG:red>
                           <xmpG:green>223</xmpG:green>
                           <xmpG:blue>35</xmpG:blue>
                        </rdf:li>
                        <rdf:li rdf:parseType="Resource">
                           <xmpG:swatchName>C=50 M=0 Y=100 K=0</xmpG:swatchName>
                           <xmpG:mode>RGB</xmpG:mode>
                           <xmpG:type>PROCESS</xmpG:type>
                           <xmpG:red>141</xmpG:red>
                           <xmpG:green>198</xmpG:green>
                           <xmpG:blue>63</xmpG:blue>
                        </rdf:li>
                        <rdf:li rdf:parseType="Resource">
                           <xmpG:swatchName>C=75 M=0 Y=100 K=0</xmpG:swatchName>
                           <xmpG:mode>RGB</xmpG:mode>
                           <xmpG:type>PROCESS</xmpG:type>
                           <xmpG:red>57</xmpG:red>
                           <xmpG:green>181</xmpG:green>
                           <xmpG:blue>74</xmpG:blue>
                        </rdf:li>
                        <rdf:li rdf:parseType="Resource">
                           <xmpG:swatchName>C=85 M=10 Y=100 K=10</xmpG:swatchName>
                           <xmpG:mode>RGB</xmpG:mode>
                           <xmpG:type>PROCESS</xmpG:type>
                           <xmpG:red>0</xmpG:red>
                           <xmpG:green>148</xmpG:green>
                           <xmpG:blue>68</xmpG:blue>
                        </rdf:li>
                        <rdf:li rdf:parseType="Resource">
                           <xmpG:swatchName>C=90 M=30 Y=95 K=30</xmpG:swatchName>
                           <xmpG:mode>RGB</xmpG:mode>
                           <xmpG:type>PROCESS</xmpG:type>
                           <xmpG:red>0</xmpG:red>
                           <xmpG:green>104</xmpG:green>
                           <xmpG:blue>56</xmpG:blue>
                        </rdf:li>
                        <rdf:li rdf:parseType="Resource">
                           <xmpG:swatchName>C=75 M=0 Y=75 K=0</xmpG:swatchName>
                           <xmpG:mode>RGB</xmpG:mode>
                           <xmpG:type>PROCESS</xmpG:type>
                           <xmpG:red>43</xmpG:red>
                           <xmpG:green>182</xmpG:green>
                           <xmpG:blue>115</xmpG:blue>
                        </rdf:li>
                        <rdf:li rdf:parseType="Resource">
                           <xmpG:swatchName>C=80 M=10 Y=45 K=0</xmpG:swatchName>
                           <xmpG:mode>RGB</xmpG:mode>
                           <xmpG:type>PROCESS</xmpG:type>
                           <xmpG:red>0</xmpG:red>
                           <xmpG:green>167</xmpG:green>
                           <xmpG:blue>157</xmpG:blue>
                        </rdf:li>
                        <rdf:li rdf:parseType="Resource">
                           <xmpG:swatchName>C=70 M=15 Y=0 K=0</xmpG:swatchName>
                           <xmpG:mode>RGB</xmpG:mode>
                           <xmpG:type>PROCESS</xmpG:type>
                           <xmpG:red>39</xmpG:red>
                           <xmpG:green>170</xmpG:green>
                           <xmpG:blue>225</xmpG:blue>
                        </rdf:li>
                        <rdf:li rdf:parseType="Resource">
                           <xmpG:swatchName>C=85 M=50 Y=0 K=0</xmpG:swatchName>
                           <xmpG:mode>RGB</xmpG:mode>
                           <xmpG:type>PROCESS</xmpG:type>
                           <xmpG:red>28</xmpG:red>
                           <xmpG:green>117</xmpG:green>
                           <xmpG:blue>188</xmpG:blue>
                        </rdf:li>
                        <rdf:li rdf:parseType="Resource">
                           <xmpG:swatchName>C=100 M=95 Y=5 K=0</xmpG:swatchName>
                           <xmpG:mode>RGB</xmpG:mode>
                           <xmpG:type>PROCESS</xmpG:type>
                           <xmpG:red>43</xmpG:red>
                           <xmpG:green>57</xmpG:green>
                           <xmpG:blue>144</xmpG:blue>
                        </rdf:li>
                        <rdf:li rdf:parseType="Resource">
                           <xmpG:swatchName>C=100 M=100 Y=25 K=25</xmpG:swatchName>
                           <xmpG:mode>RGB</xmpG:mode>
                           <xmpG:type>PROCESS</xmpG:type>
                           <xmpG:red>38</xmpG:red>
                           <xmpG:green>34</xmpG:green>
                           <xmpG:blue>98</xmpG:blue>
                        </rdf:li>
                        <rdf:li rdf:parseType="Resource">
                           <xmpG:swatchName>C=75 M=100 Y=0 K=0</xmpG:swatchName>
                           <xmpG:mode>RGB</xmpG:mode>
                           <xmpG:type>PROCESS</xmpG:type>
                           <xmpG:red>102</xmpG:red>
                           <xmpG:green>45</xmpG:green>
                           <xmpG:blue>145</xmpG:blue>
                        </rdf:li>
                        <rdf:li rdf:parseType="Resource">
                           <xmpG:swatchName>C=50 M=100 Y=0 K=0</xmpG:swatchName>
                           <xmpG:mode>RGB</xmpG:mode>
                           <xmpG:type>PROCESS</xmpG:type>
                           <xmpG:red>146</xmpG:red>
                           <xmpG:green>39</xmpG:green>
                           <xmpG:blue>143</xmpG:blue>
                        </rdf:li>
                        <rdf:li rdf:parseType="Resource">
                           <xmpG:swatchName>C=35 M=100 Y=35 K=10</xmpG:swatchName>
                           <xmpG:mode>RGB</xmpG:mode>
                           <xmpG:type>PROCESS</xmpG:type>
                           <xmpG:red>158</xmpG:red>
                           <xmpG:green>31</xmpG:green>
                           <xmpG:blue>99</xmpG:blue>
                        </rdf:li>
                        <rdf:li rdf:parseType="Resource">
                           <xmpG:swatchName>C=10 M=100 Y=50 K=0</xmpG:swatchName>
                           <xmpG:mode>RGB</xmpG:mode>
                           <xmpG:type>PROCESS</xmpG:type>
                           <xmpG:red>218</xmpG:red>
                           <xmpG:green>28</xmpG:green>
                           <xmpG:blue>92</xmpG:blue>
                        </rdf:li>
                        <rdf:li rdf:parseType="Resource">
                           <xmpG:swatchName>C=0 M=95 Y=20 K=0</xmpG:swatchName>
                           <xmpG:mode>RGB</xmpG:mode>
                           <xmpG:type>PROCESS</xmpG:type>
                           <xmpG:red>238</xmpG:red>
                           <xmpG:green>42</xmpG:green>
                           <xmpG:blue>123</xmpG:blue>
                        </rdf:li>
                        <rdf:li rdf:parseType="Resource">
                           <xmpG:swatchName>C=25 M=25 Y=40 K=0</xmpG:swatchName>
                           <xmpG:mode>RGB</xmpG:mode>
                           <xmpG:type>PROCESS</xmpG:type>
                           <xmpG:red>194</xmpG:red>
                           <xmpG:green>181</xmpG:green>
                           <xmpG:blue>155</xmpG:blue>
                        </rdf:li>
                        <rdf:li rdf:parseType="Resource">
                           <xmpG:swatchName>C=40 M=45 Y=50 K=5</xmpG:swatchName>
                           <xmpG:mode>RGB</xmpG:mode>
                           <xmpG:type>PROCESS</xmpG:type>
                           <xmpG:red>155</xmpG:red>
                           <xmpG:green>133</xmpG:green>
                           <xmpG:blue>121</xmpG:blue>
                        </rdf:li>
                        <rdf:li rdf:parseType="Resource">
                           <xmpG:swatchName>C=50 M=50 Y=60 K=25</xmpG:swatchName>
                           <xmpG:mode>RGB</xmpG:mode>
                           <xmpG:type>PROCESS</xmpG:type>
                           <xmpG:red>114</xmpG:red>
                           <xmpG:green>102</xmpG:green>
                           <xmpG:blue>88</xmpG:blue>
                        </rdf:li>
                        <rdf:li rdf:parseType="Resource">
                           <xmpG:swatchName>C=55 M=60 Y=65 K=40</xmpG:swatchName>
                           <xmpG:mode>RGB</xmpG:mode>
                           <xmpG:type>PROCESS</xmpG:type>
                           <xmpG:red>89</xmpG:red>
                           <xmpG:green>74</xmpG:green>
                           <xmpG:blue>66</xmpG:blue>
                        </rdf:li>
                        <rdf:li rdf:parseType="Resource">
                           <xmpG:swatchName>C=25 M=40 Y=65 K=0</xmpG:swatchName>
                           <xmpG:mode>RGB</xmpG:mode>
                           <xmpG:type>PROCESS</xmpG:type>
                           <xmpG:red>196</xmpG:red>
                           <xmpG:green>154</xmpG:green>
                           <xmpG:blue>108</xmpG:blue>
                        </rdf:li>
                        <rdf:li rdf:parseType="Resource">
                           <xmpG:swatchName>C=30 M=50 Y=75 K=10</xmpG:swatchName>
                           <xmpG:mode>RGB</xmpG:mode>
                           <xmpG:type>PROCESS</xmpG:type>
                           <xmpG:red>169</xmpG:red>
                           <xmpG:green>124</xmpG:green>
                           <xmpG:blue>80</xmpG:blue>
                        </rdf:li>
                        <rdf:li rdf:parseType="Resource">
                           <xmpG:swatchName>C=35 M=60 Y=80 K=25</xmpG:swatchName>
                           <xmpG:mode>RGB</xmpG:mode>
                           <xmpG:type>PROCESS</xmpG:type>
                           <xmpG:red>139</xmpG:red>
                           <xmpG:green>94</xmpG:green>
                           <xmpG:blue>60</xmpG:blue>
                        </rdf:li>
                        <rdf:li rdf:parseType="Resource">
                           <xmpG:swatchName>C=40 M=65 Y=90 K=35</xmpG:swatchName>
                           <xmpG:mode>RGB</xmpG:mode>
                           <xmpG:type>PROCESS</xmpG:type>
                           <xmpG:red>117</xmpG:red>
                           <xmpG:green>76</xmpG:green>
                           <xmpG:blue>41</xmpG:blue>
                        </rdf:li>
                        <rdf:li rdf:parseType="Resource">
                           <xmpG:swatchName>C=40 M=70 Y=100 K=50</xmpG:swatchName>
                           <xmpG:mode>RGB</xmpG:mode>
                           <xmpG:type>PROCESS</xmpG:type>
                           <xmpG:red>96</xmpG:red>
                           <xmpG:green>57</xmpG:green>
                           <xmpG:blue>19</xmpG:blue>
                        </rdf:li>
                        <rdf:li rdf:parseType="Resource">
                           <xmpG:swatchName>C=70 M=50 Y=80 K=70</xmpG:swatchName>
                           <xmpG:mode>RGB</xmpG:mode>
                           <xmpG:type>PROCESS</xmpG:type>
                           <xmpG:red>60</xmpG:red>
                           <xmpG:green>36</xmpG:green>
                           <xmpG:blue>21</xmpG:blue>
                        </rdf:li>
                     </rdf:Seq>
                  </xmpG:Colorants>
               </rdf:li>
               <rdf:li rdf:parseType="Resource">
                  <xmpG:groupName>Оттенки серого</xmpG:groupName>
                  <xmpG:groupType>1</xmpG:groupType>
                  <xmpG:Colorants>
                     <rdf:Seq>
                        <rdf:li rdf:parseType="Resource">
                           <xmpG:swatchName>C=0 M=0 Y=0 K=100</xmpG:swatchName>
                           <xmpG:mode>RGB</xmpG:mode>
                           <xmpG:type>PROCESS</xmpG:type>
                           <xmpG:red>35</xmpG:red>
                           <xmpG:green>31</xmpG:green>
                           <xmpG:blue>32</xmpG:blue>
                        </rdf:li>
                        <rdf:li rdf:parseType="Resource">
                           <xmpG:swatchName>C=0 M=0 Y=0 K=90</xmpG:swatchName>
                           <xmpG:mode>RGB</xmpG:mode>
                           <xmpG:type>PROCESS</xmpG:type>
                           <xmpG:red>65</xmpG:red>
                           <xmpG:green>64</xmpG:green>
                           <xmpG:blue>66</xmpG:blue>
                        </rdf:li>
                        <rdf:li rdf:parseType="Resource">
                           <xmpG:swatchName>C=0 M=0 Y=0 K=80</xmpG:swatchName>
                           <xmpG:mode>RGB</xmpG:mode>
                           <xmpG:type>PROCESS</xmpG:type>
                           <xmpG:red>88</xmpG:red>
                           <xmpG:green>89</xmpG:green>
                           <xmpG:blue>91</xmpG:blue>
                        </rdf:li>
                        <rdf:li rdf:parseType="Resource">
                           <xmpG:swatchName>C=0 M=0 Y=0 K=70</xmpG:swatchName>
                           <xmpG:mode>RGB</xmpG:mode>
                           <xmpG:type>PROCESS</xmpG:type>
                           <xmpG:red>109</xmpG:red>
                           <xmpG:green>110</xmpG:green>
                           <xmpG:blue>113</xmpG:blue>
                        </rdf:li>
                        <rdf:li rdf:parseType="Resource">
                           <xmpG:swatchName>C=0 M=0 Y=0 K=60</xmpG:swatchName>
                           <xmpG:mode>RGB</xmpG:mode>
                           <xmpG:type>PROCESS</xmpG:type>
                           <xmpG:red>128</xmpG:red>
                           <xmpG:green>130</xmpG:green>
                           <xmpG:blue>133</xmpG:blue>
                        </rdf:li>
                        <rdf:li rdf:parseType="Resource">
                           <xmpG:swatchName>C=0 M=0 Y=0 K=50</xmpG:swatchName>
                           <xmpG:mode>RGB</xmpG:mode>
                           <xmpG:type>PROCESS</xmpG:type>
                           <xmpG:red>147</xmpG:red>
                           <xmpG:green>149</xmpG:green>
                           <xmpG:blue>152</xmpG:blue>
                        </rdf:li>
                        <rdf:li rdf:parseType="Resource">
                           <xmpG:swatchName>C=0 M=0 Y=0 K=40</xmpG:swatchName>
                           <xmpG:mode>RGB</xmpG:mode>
                           <xmpG:type>PROCESS</xmpG:type>
                           <xmpG:red>167</xmpG:red>
                           <xmpG:green>169</xmpG:green>
                           <xmpG:blue>172</xmpG:blue>
                        </rdf:li>
                        <rdf:li rdf:parseType="Resource">
                           <xmpG:swatchName>C=0 M=0 Y=0 K=30</xmpG:swatchName>
                           <xmpG:mode>RGB</xmpG:mode>
                           <xmpG:type>PROCESS</xmpG:type>
                           <xmpG:red>188</xmpG:red>
                           <xmpG:green>190</xmpG:green>
                           <xmpG:blue>192</xmpG:blue>
                        </rdf:li>
                        <rdf:li rdf:parseType="Resource">
                           <xmpG:swatchName>C=0 M=0 Y=0 K=20</xmpG:swatchName>
                           <xmpG:mode>RGB</xmpG:mode>
                           <xmpG:type>PROCESS</xmpG:type>
                           <xmpG:red>209</xmpG:red>
                           <xmpG:green>211</xmpG:green>
                           <xmpG:blue>212</xmpG:blue>
                        </rdf:li>
                        <rdf:li rdf:parseType="Resource">
                           <xmpG:swatchName>C=0 M=0 Y=0 K=10</xmpG:swatchName>
                           <xmpG:mode>RGB</xmpG:mode>
                           <xmpG:type>PROCESS</xmpG:type>
                           <xmpG:red>230</xmpG:red>
                           <xmpG:green>231</xmpG:green>
                           <xmpG:blue>232</xmpG:blue>
                        </rdf:li>
                        <rdf:li rdf:parseType="Resource">
                           <xmpG:swatchName>C=0 M=0 Y=0 K=5</xmpG:swatchName>
                           <xmpG:mode>RGB</xmpG:mode>
                           <xmpG:type>PROCESS</xmpG:type>
                           <xmpG:red>241</xmpG:red>
                           <xmpG:green>242</xmpG:green>
                           <xmpG:blue>242</xmpG:blue>
                        </rdf:li>
                     </rdf:Seq>
                  </xmpG:Colorants>
               </rdf:li>
               <rdf:li rdf:parseType="Resource">
                  <xmpG:groupName>Яркость</xmpG:groupName>
                  <xmpG:groupType>1</xmpG:groupType>
                  <xmpG:Colorants>
                     <rdf:Seq>
                        <rdf:li rdf:parseType="Resource">
                           <xmpG:swatchName>C=0 M=100 Y=100 K=0</xmpG:swatchName>
                           <xmpG:mode>RGB</xmpG:mode>
                           <xmpG:type>PROCESS</xmpG:type>
                           <xmpG:red>237</xmpG:red>
                           <xmpG:green>28</xmpG:green>
                           <xmpG:blue>36</xmpG:blue>
                        </rdf:li>
                        <rdf:li rdf:parseType="Resource">
                           <xmpG:swatchName>C=0 M=75 Y=100 K=0</xmpG:swatchName>
                           <xmpG:mode>RGB</xmpG:mode>
                           <xmpG:type>PROCESS</xmpG:type>
                           <xmpG:red>242</xmpG:red>
                           <xmpG:green>101</xmpG:green>
                           <xmpG:blue>34</xmpG:blue>
                        </rdf:li>
                        <rdf:li rdf:parseType="Resource">
                           <xmpG:swatchName>C=0 M=10 Y=95 K=0</xmpG:swatchName>
                           <xmpG:mode>RGB</xmpG:mode>
                           <xmpG:type>PROCESS</xmpG:type>
                           <xmpG:red>255</xmpG:red>
                           <xmpG:green>222</xmpG:green>
                           <xmpG:blue>23</xmpG:blue>
                        </rdf:li>
                        <rdf:li rdf:parseType="Resource">
                           <xmpG:swatchName>C=85 M=10 Y=100 K=0</xmpG:swatchName>
                           <xmpG:mode>RGB</xmpG:mode>
                           <xmpG:type>PROCESS</xmpG:type>
                           <xmpG:red>0</xmpG:red>
                           <xmpG:green>161</xmpG:green>
                           <xmpG:blue>75</xmpG:blue>
                        </rdf:li>
                        <rdf:li rdf:parseType="Resource">
                           <xmpG:swatchName>C=100 M=90 Y=0 K=0</xmpG:swatchName>
                           <xmpG:mode>RGB</xmpG:mode>
                           <xmpG:type>PROCESS</xmpG:type>
                           <xmpG:red>33</xmpG:red>
                           <xmpG:green>64</xmpG:green>
                           <xmpG:blue>154</xmpG:blue>
                        </rdf:li>
                        <rdf:li rdf:parseType="Resource">
                           <xmpG:swatchName>C=60 M=90 Y=0 K=0</xmpG:swatchName>
                           <xmpG:mode>RGB</xmpG:mode>
                           <xmpG:type>PROCESS</xmpG:type>
                           <xmpG:red>127</xmpG:red>
                           <xmpG:green>63</xmpG:green>
                           <xmpG:blue>152</xmpG:blue>
                        </rdf:li>
                     </rdf:Seq>
                  </xmpG:Colorants>
               </rdf:li>
            </rdf:Seq>
         </xmpTPg:SwatchGroups>
      </rdf:Description>
      <rdf:Description rdf:about=""
            xmlns:pdf="http://ns.adobe.com/pdf/1.3/">
         <pdf:Producer>Adobe PDF library 10.01</pdf:Producer>
      </rdf:Description>
   </rdf:RDF>
</x:xmpmeta>
                                                                                                    
                                                                                                    
                                                                                                    
                                                                                                    
                                                                                                    
                                                                                                    
                                                                                                    
                                                                                                    
                                                                                                    
                                                                                                    
                                                                                                    
                                                                                                    
                                                                                                    
                                                                                                    
                                                                                                    
                                                                                                    
                                                                                                    
                                                                                                    
                                                                                                    
                                                                                                    
                           
<?xpacket end="w"?>
	</metadata>
<path fill-rule="evenodd" clip-rule="evenodd" fill="#FFFFFF" d="M696.5,242.5v-11h-53v-4h53v-14H4.5v14h53v4h-53v11h-4v-11v-4v-47
	c0-27.614,22.386-50,50-50h183.723c-0.472-4.27-0.723-8.605-0.723-13c0-64.617,52.383-117,117-117s117,52.383,117,117
	c0,4.395-0.251,8.73-0.723,13H650.5c27.614,0,50,22.386,50,50v47v4v11H696.5z M309.222,173.466
	c5.656-0.181,42.692-1.083,42.692-1.083v-0.017c0,0,37.135,0.889,42.806,1.066s10.61-0.178,10.976-2.133
	c0.366-1.955,5.488-3.021,8.781-6.398s2.012-10.131,0-10.664c-2.013-0.533-2.013-2.666,0-3.199c2.012-0.533,0.914-3.91-1.098-6.398
	c-2.013-2.488-12.823-6.606-12.823-5.228s1.241,3.103-2.978,3.103c-4.218,0-45.655,0-45.655,0v-0.404c0,0-41.328,0-45.535,0
	s-2.97-1.751-2.97-3.15c0-1.4-10.798,2.736-12.806,5.263c-2.007,2.527-3.102,5.957-1.095,6.499c2.007,0.541,2.007,2.708,0,3.249
	c-2.007,0.542-3.284,7.401,0,10.831c3.284,3.43,8.393,4.513,8.758,6.498C298.641,173.285,303.566,173.646,309.222,173.466z
	 M314.998,79.251c-0.665,9.337-0.222,20.231-1.107,25.566s1.107,12.895,5.536,14.451s3.986,2.89,4.429,4.446
	c0.442,1.556,5.093,8.003,13.286,7.781c8.193-0.223,9.3,2.001,9.965,4.446c0.664,2.445,4.428,5.558,4.428,5.558
	s3.759-3.11,4.422-5.554c0.663-2.444,1.769-4.666,9.947-4.443c8.18,0.222,12.821-6.221,13.264-7.775
	c0.442-1.556,0-2.889,4.422-4.443c4.421-1.555,6.41-9.109,5.526-14.44c-0.885-5.332-0.442-16.218-1.105-25.548
	s0.221-12.219,3.315-16.662c3.096-4.443-0.663-9.775-3.315-9.997s-9.063-1.111-8.843-3.333c0.222-2.222-3.537-2.666-5.526-2.222
	s-3.095-1.777-6.632-3.333c-3.537-1.555-15.475-1.18-15.475-1.18s-11.957-0.444-15.5,1.112s-4.65,3.779-6.643,3.334
	c-1.993-0.444-5.757,0-5.536,2.223c0.221,2.223-6.2,3.113-8.857,3.335s-6.422,5.558-3.322,10.004S315.662,69.914,314.998,79.251z
	 M696.5,184.5c0-27.614-22.386-50-50-50H461.218c0.844-5.544,1.282-11.221,1.282-17c0-61.856-50.145-112-112-112
	c-61.856,0-112,50.144-112,112c0,5.779,0.438,11.456,1.283,17H54.5c-27.614,0-50,22.386-50,50v14h294.456
	c-26.728-17.044-44.456-46.951-44.456-81c0-53.02,42.98-96,96-96s96,42.98,96,96c0,34.049-17.728,63.956-44.456,81H696.5V184.5z
	 M438.594,184.344c1.292-0.021,2.333-0.469,3.125-1.344c0.312-0.333,2.594-3.636,6.844-9.906l6.156-9.062
	c1.521-2.229,2.281-3.447,2.281-3.656c0-0.375-1.989-0.708-5.969-1l-0.406-0.281v-1.875l0.344-0.312l9.812,0.188
	c1.729,0.042,4.01-0.021,6.844-0.188l0.75,0.375c-0.229,6.375-0.344,11.656-0.344,15.844c0,1.667,0.021,3.406,0.062,5.219
	c0.062,2.458,0.156,3.969,0.281,4.531c0.083,0.459,0.344,0.771,0.781,0.938c0.394,0.15,1.402,0.265,2.961,0.347
	c1.534-0.078,2.498-0.173,2.824-0.284c0.364-0.125,0.625-0.323,0.781-0.594s0.267-1.203,0.329-2.797s0.093-2.838,0.093-3.734
	c0-6.812-0.016-11.177-0.047-13.094s-0.141-3.025-0.328-3.328c-0.188-0.302-0.484-0.51-0.891-0.625
	c-0.406-0.114-1.494-0.203-3.265-0.266l-0.312-0.344v-1.906l0.312-0.312c2,0.146,4.843,0.219,8.53,0.219
	c3.771,0,6.625-0.072,8.562-0.219l0.312,0.312v1.906l-0.343,0.344c-1.854,0.084-2.964,0.188-3.329,0.312
	c-0.364,0.125-0.62,0.297-0.766,0.516s-0.26,1.136-0.343,2.75c-0.084,1.615-0.131,3.558-0.142,5.828
	c-0.01,2.271-0.016,6.438-0.016,12.5c1.604-2.625,4.026-6.766,7.266-12.422c3.24-5.656,5.433-9.661,6.579-12.016
	c1.458,0.125,3.229,0.188,5.312,0.188c2.104,0,4.613-0.062,7.53-0.188l0.345,0.312v1.906l-0.407,0.312
	c-2.042,0.062-3.276,0.219-3.703,0.469s-0.651,0.969-0.672,2.156l-0.093,2.781c-0.021,0.938-0.032,3.115-0.032,6.531
	c0,3.312,0.026,6.036,0.078,8.172c0.053,2.136,0.151,3.35,0.297,3.641c0.146,0.292,0.401,0.511,0.766,0.656
	c0.312,0.125,1.228,0.226,2.675,0.305c-0.121-1.495-0.302-3.136-0.545-4.93l0.281-0.25h1.031l0.312,0.25
	c0.354,1.771,0.854,3.026,1.5,3.766c0.646,0.739,1.448,1.297,2.406,1.672s1.885,0.562,2.781,0.562c2.125,0,3.766-0.755,4.922-2.266
	c1.156-1.51,1.734-3.359,1.734-5.547c0-2.375-0.719-4.078-2.156-5.109s-3.209-1.547-5.312-1.547c-0.5,0-1.188,0.031-2.062,0.094
	l-0.344-0.375v-1.531l0.375-0.312c1.25,0,2.635-0.188,4.156-0.562c1.521-0.375,2.656-1.031,3.406-1.969s1.125-2.01,1.125-3.219
	c0-1.5-0.475-2.614-1.422-3.344c-0.948-0.729-2.068-1.094-3.359-1.094c-1.062,0-1.989,0.203-2.781,0.609s-1.386,0.933-1.781,1.578
	c-0.396,0.646-0.771,1.573-1.125,2.781l-0.25,0.25h-1.156l-0.281-0.25c0.25-2.021,0.375-4.135,0.375-6.344l0.25-0.312
	c2.375-0.646,5.104-0.969,8.188-0.969c7.041,0,10.562,2.125,10.562,6.375c0,1.396-0.479,2.719-1.438,3.969
	c-0.959,1.25-2.875,2.239-5.75,2.969v0.562c0.916,0,2.229,0.214,3.938,0.641c1.708,0.427,3.047,1.287,4.016,2.578
	c0.969,1.292,1.453,2.875,1.453,4.75c0,1.917-0.553,3.709-1.656,5.375c-1.104,1.667-2.662,2.891-4.672,3.672
	c-2.011,0.781-4.422,1.172-7.234,1.172c-3.258,0-6.04-0.512-8.395-1.481v0.044l-0.312,0.312c-1.979-0.146-4.834-0.219-8.562-0.219
	c-3.479,0-6.324,0.073-8.532,0.219l-0.312-0.312V184.5l0.312-0.312c1.958-0.083,3.115-0.203,3.47-0.359
	c0.354-0.156,0.599-0.385,0.733-0.688c0.136-0.302,0.234-1.38,0.297-3.234s0.095-4.677,0.095-8.469v-9.312
	c-5.792,9.646-10.5,17.812-14.125,24.5l-5.782-0.125c-1.983,0-3.877,0.062-5.716,0.165l-0.054,0.054
	c-0.144-0.011-0.326-0.018-0.479-0.028c-0.186,0.012-0.381,0.016-0.564,0.028l-0.057-0.063c-1.893-0.102-4.355-0.155-7.463-0.155
	c-3.479,0-6.323,0.073-8.531,0.219l-0.312-0.312V184.5l0.312-0.312c1.833-0.104,3-0.229,3.5-0.375
	c0.333-0.104,0.578-0.344,0.734-0.719s0.255-2.333,0.297-5.875l0.062-16.625h-0.469c-8.229,13.417-12.344,20.771-12.344,22.062
	c0,1,1.219,1.573,3.656,1.719l0.375,0.281v1.75l-0.375,0.281c-3.25-0.125-5.438-0.188-6.562-0.188c-1.271,0-3.188,0.062-5.75,0.188
	l-0.375-0.281v-1.781L438.594,184.344z M536.075,183.875c0.364-0.125,0.625-0.323,0.781-0.594s0.266-1.203,0.328-2.797
	s0.094-2.838,0.094-3.734c0-6.812-0.016-11.177-0.047-13.094s-0.141-3.025-0.328-3.328c-0.188-0.302-0.484-0.51-0.891-0.625
	c-0.406-0.114-1.495-0.203-3.266-0.266l-0.312-0.344v-1.906l0.312-0.312c2,0.146,4.844,0.219,8.531,0.219
	c3.771,0,6.625-0.072,8.562-0.219l0.312,0.312v1.906l-0.344,0.344c-1.854,0.084-2.964,0.188-3.328,0.312s-0.62,0.297-0.766,0.516
	s-0.261,1.136-0.344,2.75c-0.083,1.615-0.13,3.558-0.141,5.828s-0.016,6.438-0.016,12.5c1.604-2.625,4.026-6.766,7.266-12.422
	s5.433-9.661,6.578-12.016c1.458,0.125,3.229,0.188,5.312,0.188c1.818,0,3.958-0.05,6.382-0.143l0.045-0.045
	c0.134,0.01,0.303,0.017,0.444,0.025c0.224-0.009,0.433-0.016,0.66-0.025l0.075,0.068c1.892,0.099,4.32,0.15,7.352,0.15
	c3.75,0,6.604-0.073,8.562-0.219l0.312,0.312v1.938l-0.344,0.312c-1.854,0.042-3.042,0.156-3.562,0.344
	c-0.438,0.167-0.709,0.526-0.812,1.078c-0.104,0.553-0.156,2.234-0.156,5.047v3.031h14.344v-2.125c0-2.5-0.031-4.146-0.094-4.938
	c-0.104-1.229-0.49-1.947-1.156-2.156c-0.312-0.104-1.406-0.198-3.281-0.281l-0.344-0.344v-1.906l0.344-0.312
	c1.979,0.146,4.822,0.219,8.531,0.219c2.904,0,5.329-0.053,7.33-0.153l0.096-0.097c0.238,0.017,0.509,0.032,0.802,0.048
	c0.097-0.006,0.21-0.011,0.304-0.017l0.031,0.031c2.265,0.104,5.968,0.156,11.145,0.156c3.25,0,7.312-0.072,12.188-0.219
	l0.312,0.438c-0.042,0.709-0.062,1.959-0.062,3.75c0,0.729,0.021,2.021,0.062,3.875l-0.312,0.344h-1.188l-0.281-0.344
	c-0.667-2.166-1.239-3.573-1.719-4.219c-0.333-0.458-0.864-0.75-1.594-0.875c-0.583-0.104-2.989-0.156-7.219-0.156v10.688
	c0,7.354,0.104,11.479,0.312,12.375c0.146,0.604,0.5,0.989,1.062,1.156c0.354,0.104,1.427,0.198,3.219,0.281l0.344,0.312v1.906
	l-0.312,0.312c-1.979-0.146-4.833-0.219-8.562-0.219c-3.06,0-5.489,0.052-7.357,0.15l-0.068,0.068
	c-0.167-0.013-0.376-0.021-0.555-0.032c-0.178,0.012-0.386,0.02-0.551,0.032l-0.067-0.068c-1.881-0.099-4.311-0.15-7.358-0.15
	c-3.479,0-6.323,0.073-8.531,0.219l-0.312-0.312V184.5l0.25-0.312c1.979-0.083,3.182-0.208,3.609-0.375
	c0.427-0.166,0.692-0.479,0.797-0.938c0.125-0.604,0.188-2.114,0.188-4.531v-7.062H583.33v7.062c0,2.417,0.072,3.928,0.219,4.531
	c0.104,0.459,0.375,0.771,0.812,0.938c0.438,0.167,1.625,0.292,3.562,0.375l0.312,0.312v1.906l-0.312,0.312
	c-1.959-0.146-4.803-0.219-8.531-0.219c-3.078,0-5.519,0.052-7.389,0.15l-0.069,0.068c-0.166-0.013-0.375-0.021-0.554-0.032
	c-0.178,0.012-0.387,0.02-0.551,0.032l-0.068-0.068c-1.883-0.099-4.323-0.15-7.39-0.15c-3.479,0-6.323,0.073-8.531,0.219
	l-0.312-0.312V184.5l0.312-0.312c1.958-0.083,3.114-0.203,3.469-0.359s0.599-0.385,0.734-0.688c0.136-0.302,0.234-1.38,0.297-3.234
	s0.094-4.677,0.094-8.469v-9.312c-5.792,9.646-10.5,17.812-14.125,24.5l-5.781-0.125c-2.375,0-4.646,0.073-6.812,0.219l-0.281-0.312
	v-1.938l0.281-0.281C534.591,184.104,535.711,184,536.075,183.875z M605.674,178.344c0,2.417,0.072,3.928,0.219,4.531
	c0.104,0.459,0.375,0.771,0.812,0.938c0.393,0.149,1.403,0.264,2.969,0.346c1.503-0.082,2.509-0.196,2.957-0.346
	c0.396-0.125,0.667-0.438,0.812-0.938c0.125-0.438,0.188-1.948,0.188-4.531v-10.406c0-4.812-0.156-7.406-0.469-7.781
	c-0.188-0.229-0.448-0.385-0.781-0.469c-0.395-0.079-1.122-0.151-2.176-0.219l0,0c-1.854,0.042-3.042,0.156-3.562,0.344
	c-0.438,0.167-0.709,0.526-0.812,1.078c-0.104,0.553-0.156,2.234-0.156,5.047V178.344z M567.419,179.547
	c0.052,2.136,0.151,3.35,0.297,3.641c0.146,0.292,0.401,0.511,0.766,0.656c0.327,0.131,1.311,0.235,2.882,0.315
	c1.509-0.082,2.518-0.196,2.967-0.347c0.396-0.125,0.666-0.438,0.812-0.938c0.125-0.438,0.188-1.948,0.188-4.531v-10.375
	c0-4.812-0.156-7.406-0.469-7.781c-0.188-0.229-0.448-0.386-0.781-0.469c-0.467-0.093-1.421-0.178-2.81-0.255
	c-1.681,0.074-2.75,0.218-3.133,0.442c-0.427,0.25-0.651,0.969-0.672,2.156l-0.094,2.781c-0.021,0.938-0.031,3.115-0.031,6.531
	C567.341,174.688,567.367,177.411,567.419,179.547z M256.006,157.219v1.875l-0.312,0.219c-1.312,0.042-2.865,0.667-4.656,1.875
	c-3.333,2.25-6.427,4.656-9.281,7.219c0.667,0.75,2.042,2.323,4.125,4.719l3.938,4.438c2.708,3.062,4.51,4.959,5.406,5.688
	c0.792,0.646,1.739,1,2.844,1.062l0.312,0.281v1.812l-0.375,0.281c-1.792-0.146-3.386-0.219-4.781-0.219
	c-0.5,0-1.261,0.026-2.281,0.078c-1.021,0.052-1.781,0.078-2.281,0.078c-0.833,0-1.448-0.219-1.844-0.656
	c-1.375-1.146-3.261-3.322-5.656-6.531c-2.917-3.896-4.75-6.261-5.5-7.094v6c0,2.396,0.073,3.906,0.219,4.531
	c0.146,0.625,0.781,1.021,1.906,1.188c0.083,0.021,0.896,0.062,2.438,0.125l0.312,0.312v1.906l-0.312,0.312
	c-1.979-0.146-4.781-0.219-8.406-0.219c-3.729,0-6.573,0.073-8.531,0.219l-0.11-0.11c-1.465-0.066-2.959-0.108-4.503-0.108
	c-1.979,0-3.812,0.052-5.5,0.156l-0.312-0.344l0.312-3.906l-0.469-0.125c-1.396,1.25-2.323,2.062-2.781,2.438
	c-0.938,0.771-1.771,1.344-2.5,1.719c-1.333,0.688-3.011,1.031-5.031,1.031c-5.292,0-7.938-2.625-7.938-7.875
	c0-2.729,0.812-4.844,2.438-6.344c1.25-1.146,4-2.114,8.25-2.906l7.625-1.406c-0.042-1.875-0.208-3.281-0.5-4.219
	c-0.438-1.396-1.271-2.489-2.5-3.281c-1-0.625-2.136-0.938-3.406-0.938c-0.917,0-2.115,0.146-3.594,0.438l-2.375,4.562l-0.406,0.219
	l-1.344-0.25l-0.312-0.438l0.312-4.156c4.854-3.229,8.688-4.844,11.5-4.844c3.958,0,6.854,1.24,8.688,3.719
	c1.083,1.459,1.625,3.521,1.625,6.188c0,0.875-0.052,3.042-0.156,6.5c-0.042,1.375-0.062,2.562-0.062,3.562
	c0,4.625,0.156,7.136,0.469,7.531c0.257,0.326,1.159,0.541,2.633,0.654l2.449-0.092c1.125-0.167,1.76-0.572,1.906-1.219
	c0.125-0.583,0.188-2.094,0.188-4.531v-10.406c0-4.833-0.156-7.427-0.469-7.781c-0.188-0.229-0.458-0.385-0.812-0.469
	c-0.521-0.125-1.615-0.229-3.281-0.312l-0.312-0.312v-1.906l0.312-0.312c1.917,0.146,4.76,0.219,8.531,0.219
	c3.75,0,6.552-0.073,8.406-0.219l0.312,0.312v1.906l-0.312,0.312c-1.625,0.042-2.479,0.062-2.562,0.062
	c-1.125,0.167-1.75,0.614-1.875,1.344c-0.104,0.604-0.156,2.292-0.156,5.062v5.594c2.396-2,5.375-5.073,8.938-9.219
	c1.167-1.354,1.75-2.156,1.75-2.406s-0.094-0.427-0.281-0.531L245.725,159v-1.781l0.375-0.312c1.729,0.125,3.448,0.188,5.156,0.188
	c1.375,0,2.833-0.062,4.375-0.188L256.006,157.219z M212.83,170.719c-1.896,0.542-3.354,0.99-4.375,1.344
	c-2.042,0.688-3.396,1.281-4.062,1.781c-1.396,1.042-2.094,2.49-2.094,4.344c0,1.292,0.417,2.364,1.25,3.219
	c0.833,0.854,1.896,1.281,3.188,1.281c1.979,0,3.614-0.812,4.906-2.438c0.792-1,1.188-2.5,1.188-4.5V170.719z M191.06,159.812
	c-0.438,0.167-0.708,0.526-0.812,1.078c-0.104,0.553-0.156,2.234-0.156,5.047v12.406c0,2.417,0.073,3.928,0.219,4.531
	c0.104,0.459,0.375,0.771,0.812,0.938c0.438,0.167,1.604,0.292,3.5,0.375l0.312,0.312v1.906l-0.312,0.312
	c-1.979-0.146-4.823-0.219-8.531-0.219c-3.479,0-6.323,0.073-8.531,0.219l-0.312-0.312V184.5l0.25-0.312
	c1.979-0.083,3.182-0.208,3.609-0.375c0.427-0.166,0.692-0.479,0.797-0.938c0.125-0.604,0.188-2.114,0.188-4.531v-7.062h-14.344
	v7.062c0,2.417,0.073,3.928,0.219,4.531c0.104,0.459,0.375,0.771,0.812,0.938c0.438,0.167,1.625,0.292,3.562,0.375l0.312,0.312
	v1.906l-0.312,0.312c-1.958-0.146-4.802-0.219-8.531-0.219c-3.75,0-6.604,0.073-8.562,0.219l-0.312-0.312V184.5l0.344-0.312
	c1.812-0.083,2.969-0.208,3.469-0.375c0.396-0.125,0.667-0.438,0.812-0.938c0.125-0.438,0.188-1.948,0.188-4.531v-10.375
	c0-4.812-0.156-7.406-0.469-7.781c-0.188-0.229-0.448-0.386-0.781-0.469c-0.521-0.104-1.615-0.197-3.281-0.281l-0.312-0.312v-1.906
	l0.312-0.312c2,0.146,4.844,0.219,8.531,0.219c3.75,0,6.604-0.073,8.562-0.219l0.312,0.312v1.938l-0.344,0.312
	c-1.854,0.042-3.042,0.156-3.562,0.344c-0.438,0.167-0.708,0.526-0.812,1.078c-0.104,0.553-0.156,2.234-0.156,5.047v3.031h14.344
	v-2.125c0-2.5-0.031-4.146-0.094-4.938c-0.104-1.229-0.49-1.947-1.156-2.156c-0.312-0.104-1.406-0.198-3.281-0.281l-0.344-0.344
	v-1.906l0.344-0.312c1.979,0.146,4.823,0.219,8.531,0.219c3.5,0,6.344-0.073,8.531-0.219l0.312,0.312v1.938l-0.312,0.312
	C192.768,159.511,191.581,159.625,191.06,159.812z M150.071,170.297c1.708,0.427,3.047,1.287,4.016,2.578
	c0.969,1.292,1.453,2.875,1.453,4.75c0,1.917-0.552,3.709-1.656,5.375c-1.104,1.667-2.662,2.891-4.672,3.672
	c-2.011,0.781-4.422,1.172-7.234,1.172c-3.604,0-6.656-0.594-9.156-1.781l-0.219-0.312c-0.104-1.896-0.323-4.073-0.656-6.531
	l0.281-0.25h1.031l0.312,0.25c0.354,1.771,0.854,3.026,1.5,3.766c0.646,0.739,1.448,1.297,2.406,1.672
	c0.958,0.375,1.885,0.562,2.781,0.562c2.125,0,3.766-0.755,4.922-2.266c1.156-1.51,1.734-3.359,1.734-5.547
	c0-2.375-0.719-4.078-2.156-5.109s-3.208-1.547-5.312-1.547c-0.5,0-1.188,0.031-2.062,0.094l-0.344-0.375v-1.531l0.375-0.312
	c1.25,0,2.635-0.188,4.156-0.562c1.521-0.375,2.656-1.031,3.406-1.969s1.125-2.01,1.125-3.219c0-1.5-0.474-2.614-1.422-3.344
	c-0.948-0.729-2.068-1.094-3.359-1.094c-1.062,0-1.99,0.203-2.781,0.609c-0.792,0.406-1.386,0.933-1.781,1.578
	c-0.396,0.646-0.771,1.573-1.125,2.781l-0.25,0.25h-1.156l-0.281-0.25c0.25-2.021,0.375-4.135,0.375-6.344l0.25-0.312
	c2.375-0.646,5.104-0.969,8.188-0.969c7.042,0,10.562,2.125,10.562,6.375c0,1.396-0.479,2.719-1.438,3.969
	c-0.958,1.25-2.875,2.239-5.75,2.969v0.562C147.05,169.656,148.363,169.87,150.071,170.297z M123.958,185.875
	c-2.896,1.333-6.031,2-9.406,2c-6.75,0-11.594-2.333-14.531-7c-1.625-2.541-2.417-5.739-2.375-9.594
	c0.062-5.125,1.948-9.083,5.656-11.875c3.229-2.417,7.281-3.625,12.156-3.625c4.979,0,9,1.271,12.062,3.812
	c3.312,2.729,4.969,6.531,4.969,11.406c0,3.312-0.688,6.239-2.062,8.781C128.947,182.531,126.791,184.562,123.958,185.875z
	 M121.567,161.781c-1.552-2.354-3.734-3.531-6.547-3.531c-3.125,0-5.448,1.489-6.969,4.469c-1.188,2.312-1.781,5.188-1.781,8.625
	c0,3.688,0.542,6.719,1.625,9.094c1.458,3.229,3.802,4.844,7.031,4.844c5.979,0,8.969-4.646,8.969-13.938
	C123.895,167.323,123.119,164.136,121.567,161.781z M97.625,153h-1.969l-0.312-0.312c-0.021-0.125-0.052-0.541-0.094-1.25
	c-0.083-1.521-0.136-2.386-0.156-2.594c-0.167-1.271-0.458-2.062-0.875-2.375c-0.625-0.458-2.636-0.688-6.031-0.688h-9.281v27.031
	c0,4.959,0.135,8.188,0.406,9.688c0.104,0.604,0.458,0.989,1.062,1.156c0.312,0.083,1.531,0.188,3.656,0.312l0.312,0.312
	l0.031,2.125l-0.281,0.281c-0.292,0-1.083-0.021-2.375-0.062c-3.312-0.084-5.74-0.125-7.281-0.125c-2.062,0-5.281,0.062-9.656,0.188
	l-0.281-0.281v-2.125l0.312-0.312c2.125-0.125,3.344-0.229,3.656-0.312c0.604-0.167,0.958-0.552,1.062-1.156
	c0.271-1.5,0.406-4.729,0.406-9.688v-16.531c0-4.958-0.136-8.188-0.406-9.688c-0.104-0.604-0.458-0.989-1.062-1.156
	c-0.312-0.083-1.531-0.188-3.656-0.312l-0.312-0.312v-2.125l0.312-0.281l7.594,0.188c13.438,0,22.01-0.114,25.719-0.344l0.281,0.312
	c-0.292,1.938-0.438,5.312-0.438,10.125L97.625,153z M318.5,56.5c2.4-0.2,8.2-1,8-3s3.2-2.4,5-2s2.8-1.6,6-3s14-1,14-1
	s10.782-0.337,13.977,1.062c3.194,1.399,4.192,3.397,5.989,2.998c1.798-0.399,5.191,0,4.992,1.999
	c-0.2,1.999,5.591,2.798,7.986,2.998s5.79,4.997,2.995,8.994c-2.796,3.997-3.594,6.595-2.995,14.989
	c0.599,8.395,0.199,18.188,0.998,22.984c0.799,4.796-0.998,11.592-4.991,12.991s-3.594,2.598-3.993,3.997s-4.593,7.195-11.979,6.995
	c-7.388-0.199-8.387,1.799-8.985,3.998c-0.599,2.198-3.993,4.996-3.993,4.996s-3.4-2.8-4-5s-1.6-4.2-9-4s-11.6-5.6-12-7s0-2.6-4-4
	s-5.8-8.2-5-13s0.4-14.6,1-23s-0.2-11-3-15S316.1,56.7,318.5,56.5z M364.5,57.5c-3.571,2-9.429,1-13,1s-8.571,0-14,5
	c-4.042,3.723-4.143,9.714-3,13s5.143,6.429,6,1c0.489-3.098-4.714-6-2-9s4-5.143,7-6s6-1,6-1s-3.857,4.286-4,7s-2.286,7.143-3,12
	s-1.714,10.286-5,11s-7.286,2.143-4,3s9.857-0.286,12-8s4.714-19.143,6-21s2.857-3.143,6-3s5.143,0.429,7-2S368.071,55.5,364.5,57.5
	z M342.5,116.5c2.714-2.429,7-14,8-18s7-12.714,7-11s-1.429,13.857-2,18s-0.429,8.429-2,9s-3,1-3,1v2l15-1v-2h-7c0,0,3.429-5,3-11
	s0.429-12.429,1-15s0-3.857,2-4s3.286-1.286,2-2s-4.143-2.286-8,0s-9,4.286-12,14s-3.571,14.429-7,16s-7.143,0.286-7,3
	S339.786,118.929,342.5,116.5z M294.346,163.593c-3.004-3.118-1.836-9.354,0-9.847s1.836-2.462,0-2.954s-0.834-3.61,1.001-5.907
	c1.835-2.298,7.009-4.267,7.009-2.954s-1.252,2.954,3.004,2.954c4.255,0,46.061,0,46.061,0v0.379c0,0,41.916,0,46.184,0
	c4.267,0,3.012-1.616,3.012-2.909c0-1.292,5.188,0.646,7.027,2.909c1.841,2.262,2.845,5.332,1.004,5.816
	c-1.84,0.484-1.84,2.424,0,2.908c1.841,0.485,3.013,6.625,0,9.695c-3.012,3.069-7.696,4.039-8.031,5.816s-4.853,2.101-10.04,1.938
	c-5.188-0.161-39.155-0.969-39.155-0.969v0.015c0,0-33.878,0.82-39.052,0.984c-5.174,0.164-9.68-0.164-10.013-1.969
	C302.023,167.695,297.35,166.71,294.346,163.593z M347.759,164.471l0.098,0.088c0.605-0.039,1.608-0.059,3.008-0.059
	c1.354,0,2.356,0.02,3.008,0.059l0.088-0.098v-0.654l-0.098-0.098c-0.664-0.039-1.045-0.071-1.143-0.098
	c-0.188-0.052-0.3-0.173-0.332-0.361c-0.085-0.469-0.127-1.478-0.127-3.027v-2.354c0.521-0.032,1.602-0.049,3.242-0.049
	c1.777,0,2.832,0.017,3.164,0.049v2.354c0,1.55-0.042,2.559-0.127,3.027c-0.032,0.188-0.143,0.31-0.332,0.361
	c-0.098,0.026-0.479,0.059-1.143,0.098l-0.107,0.098v0.664l0.098,0.088c0.612-0.039,1.614-0.059,3.008-0.059
	c1.295,0,2.255,0.019,2.901,0.054l0.006,0.005c0.021-0.001,0.036-0.001,0.057-0.002c0.014,0.001,0.031,0.001,0.044,0.002
	l0.004-0.004c0.988-0.036,1.62-0.055,1.878-0.055c0.345,0,1.119,0.02,2.324,0.059l0.098-0.098v-0.625l-0.098-0.098
	c-0.495-0.026-0.827-0.052-0.996-0.078c-0.307-0.046-0.459-0.192-0.459-0.439c0-0.228,0.162-0.794,0.488-1.699l0.43-1.191
	c1.002-0.013,1.758-0.02,2.266-0.02c0.938,0,1.855,0.007,2.754,0.02l0.791,2.061c0.182,0.476,0.273,0.781,0.273,0.918
	c0,0.234-0.18,0.361-0.537,0.381l-0.85,0.049l-0.098,0.107v0.615l0.088,0.098c1.028-0.039,2.142-0.059,3.34-0.059
	c0.29,0,1.132,0.019,2.503,0.056l0.003,0.003c0.011-0.001,0.027-0.001,0.039-0.002c0.026,0.001,0.045,0.001,0.072,0.002l0.005-0.006
	c0.613-0.034,1.568-0.053,2.892-0.053c1.354,0,2.356,0.02,3.008,0.059l0.088-0.098v-0.654l-0.098-0.098
	c-0.664-0.039-1.045-0.071-1.143-0.098c-0.188-0.052-0.3-0.173-0.332-0.361c-0.085-0.469-0.127-1.478-0.127-3.027v-2.314
	l4.551,5.088c0.566,0.638,1.032,1.097,1.396,1.377c0.149,0.117,0.332,0.176,0.547,0.176c0.104,0,0.349-0.01,0.732-0.029
	c0.261-0.013,0.55-0.02,0.869-0.02c0.163,0,0.729,0.022,1.699,0.068l0.107-0.117v-0.605l-0.088-0.098
	c-0.684-0.124-1.409-0.586-2.178-1.387l-5.586-5.801c0.645-0.612,1.159-1.106,1.543-1.484c1.028-0.989,1.868-1.761,2.52-2.314
	c0.586-0.501,1.016-0.813,1.289-0.938c0.332-0.149,0.85-0.237,1.553-0.264l0.098-0.088v-0.654l-0.107-0.098
	c-0.847,0.039-1.484,0.059-1.914,0.059c-0.625,0-1.296-0.02-2.012-0.059l-0.117,0.098v0.557l0.107,0.088
	c0.059,0.032,0.088,0.088,0.088,0.166c0,0.188-0.176,0.511-0.527,0.967c-0.215,0.28-0.642,0.774-1.279,1.484
	c-0.234,0.261-0.635,0.681-1.201,1.26c-1.074,1.094-1.771,1.807-2.09,2.139v-2.422c0-1.55,0.042-2.559,0.127-3.027
	c0.032-0.188,0.144-0.31,0.332-0.361c0.098-0.026,0.479-0.059,1.143-0.098l0.098-0.098v-0.664l-0.088-0.088
	c-0.593,0.039-1.595,0.059-3.008,0.059c-1.381,0-2.383-0.02-3.008-0.059l-0.098,0.088v0.664l0.098,0.098
	c0.664,0.039,1.045,0.071,1.143,0.098c0.188,0.052,0.3,0.173,0.332,0.361c0.085,0.469,0.127,1.478,0.127,3.027v5.166
	c0,1.55-0.042,2.559-0.127,3.027c-0.032,0.188-0.144,0.31-0.332,0.361c-0.098,0.026-0.479,0.059-1.143,0.098l-0.013,0.013
	c-0.338-0.008-0.614-0.041-0.804-0.11c-0.163-0.059-0.346-0.319-0.547-0.781l-5.176-12.178h-1.387
	c-0.385,0.996-0.671,1.741-0.859,2.236l-2.549,6.377c-0.996,2.487-1.571,3.845-1.724,4.072c-0.144,0.213-0.535,0.336-1.132,0.384
	l-0.013-0.013c-0.664-0.039-1.045-0.071-1.143-0.098c-0.188-0.052-0.3-0.173-0.332-0.361c-0.085-0.469-0.127-1.478-0.127-3.027
	v-5.166c0-1.55,0.042-2.559,0.127-3.027c0.032-0.188,0.144-0.31,0.332-0.361c0.091-0.026,0.476-0.059,1.152-0.098l0.088-0.088
	v-0.674l-0.098-0.088c-0.586,0.039-1.589,0.059-3.008,0.059c-1.374,0-2.376-0.02-3.008-0.059l-0.098,0.088v0.664l0.107,0.098
	c0.664,0.039,1.045,0.071,1.143,0.098c0.189,0.052,0.3,0.173,0.332,0.361c0.085,0.469,0.127,1.478,0.127,3.027v1.611
	c-0.469,0.032-1.653,0.049-3.555,0.049c-1.211,0-2.161-0.017-2.852-0.049v-1.611c0-1.55,0.042-2.559,0.127-3.027
	c0.032-0.188,0.144-0.31,0.332-0.361c0.098-0.026,0.479-0.059,1.143-0.098l0.098-0.088v-0.674l-0.088-0.088
	c-0.593,0.039-1.595,0.059-3.008,0.059c-1.38,0-2.383-0.02-3.008-0.059l-0.098,0.088v0.664l0.098,0.098
	c0.664,0.039,1.045,0.071,1.143,0.098c0.189,0.052,0.3,0.173,0.332,0.361c0.085,0.469,0.127,1.478,0.127,3.027v5.166
	c0,1.55-0.042,2.559-0.127,3.027c-0.032,0.188-0.143,0.31-0.332,0.361c-0.098,0.026-0.479,0.059-1.143,0.098l-0.098,0.098V164.471z
	 M337.86,163.445l0.068,0.166c1.074,0.755,2.52,1.133,4.336,1.133c1.66,0,3.011-0.361,4.053-1.084
	c1.198-0.84,1.797-2.051,1.797-3.633c0-0.755-0.16-1.387-0.479-1.895c-0.619-0.989-1.973-1.484-4.062-1.484v-0.176
	c0.911-0.124,1.663-0.439,2.256-0.947c0.67-0.566,1.006-1.286,1.006-2.158c0-1.035-0.485-1.8-1.455-2.295
	c-0.749-0.384-1.699-0.576-2.852-0.576c-1.4,0-2.725,0.352-3.975,1.055l-0.088,0.107c0.104,0.515,0.176,1.24,0.215,2.178
	l0.059,0.068h0.439l0.059-0.068c0.221-0.774,0.543-1.351,0.967-1.729c0.481-0.43,1.032-0.645,1.65-0.645
	c0.898,0,1.549,0.371,1.953,1.113c0.188,0.345,0.283,0.716,0.283,1.113c0,0.56-0.134,1.045-0.4,1.455
	c-0.287,0.437-0.638,0.735-1.055,0.898c-0.332,0.13-0.794,0.195-1.387,0.195c-0.241,0-0.534-0.013-0.879-0.039l-0.117,0.078v0.947
	l0.117,0.098c0.41-0.052,0.833-0.078,1.27-0.078c1.035,0,1.858,0.244,2.471,0.732c0.67,0.534,1.006,1.306,1.006,2.314
	c0,1.035-0.287,1.865-0.859,2.49c-0.612,0.671-1.452,1.006-2.52,1.006c-0.84,0-1.55-0.306-2.129-0.918
	c-0.515-0.54-0.869-1.345-1.064-2.412l-0.059-0.068h-0.557l-0.068,0.068c0.039,0.729,0.059,1.289,0.059,1.68
	S337.899,162.964,337.86,163.445z M324.543,163.05c1.27,1.253,3.018,1.88,5.244,1.88c2.356,0,4.215-0.664,5.576-1.992
	c1.399-1.367,2.1-3.252,2.1-5.654c0-2.122-0.642-3.789-1.924-5c-1.263-1.191-3.031-1.787-5.303-1.787
	c-1.589,0-2.927,0.273-4.014,0.82c-2.39,1.204-3.584,3.372-3.584,6.504C322.639,160.054,323.274,161.797,324.543,163.05z
	 M312.125,151.473l0.098,0.098c0.664,0.039,1.045,0.071,1.143,0.098c0.189,0.052,0.299,0.173,0.332,0.361
	c0.084,0.469,0.127,1.478,0.127,3.027v5.166c0,1.55-0.042,2.559-0.127,3.027c-0.033,0.188-0.143,0.31-0.332,0.361
	c-0.098,0.026-0.479,0.059-1.143,0.098l-0.098,0.098v0.664l0.088,0.088c1.367-0.039,2.373-0.059,3.018-0.059
	c0.482,0,1.24,0.013,2.275,0.039c0.404,0.013,0.651,0.02,0.742,0.02l0.088-0.088l-0.01-0.664l-0.098-0.098
	c-0.664-0.039-1.045-0.071-1.143-0.098c-0.189-0.052-0.3-0.173-0.332-0.361c-0.085-0.469-0.127-1.478-0.127-3.027v-8.447h2.9
	c1.061,0,1.689,0.071,1.885,0.215c0.13,0.098,0.221,0.345,0.273,0.742c0.006,0.065,0.023,0.335,0.049,0.811
	c0.013,0.222,0.022,0.352,0.029,0.391l0.098,0.098h0.615l0.107-0.098c0-1.504,0.045-2.559,0.137-3.164l-0.088-0.098
	c-1.159,0.071-3.838,0.107-8.037,0.107l-2.373-0.059l-0.098,0.088V151.473z M329.983,151.629c1.465,0,2.576,0.555,3.335,1.665
	c0.758,1.11,1.138,2.609,1.138,4.497c0,1.211-0.169,2.302-0.508,3.271c-0.638,1.829-1.885,2.744-3.74,2.744
	c-1.53,0-2.679-0.603-3.447-1.807c-0.742-1.165-1.113-2.754-1.113-4.766c0-1.106,0.163-2.106,0.488-2.998
	C326.767,152.498,328.049,151.629,329.983,151.629z M371.281,159.207c-0.515,0.02-1.186,0.029-2.012,0.029
	c-0.854,0-1.547-0.01-2.08-0.029l2.002-5.117L371.281,159.207z M78.121,231.599c0.539,0.713,0.809,1.585,0.809,2.614
	s-0.262,1.932-0.787,2.707c-0.525,0.775-1.222,1.365-2.092,1.769c-0.87,0.403-1.84,0.604-2.911,0.604
	c-1.031,0-2.041-0.202-3.029-0.606c-0.988-0.403-1.811-0.96-2.467-1.668l1.324-1.615c0.469,0.511,1.061,0.936,1.775,1.273
	s1.451,0.507,2.209,0.507c1.047,0,1.896-0.277,2.549-0.831s0.979-1.307,0.979-2.258c0-0.88-0.29-1.569-0.869-2.068
	c-0.58-0.499-1.34-0.749-2.281-0.749h-2.088v-1.969h1.679c0.855,0,1.574-0.259,2.157-0.776c0.583-0.519,0.875-1.177,0.875-1.978
	c0-0.793-0.252-1.443-0.756-1.954c-0.504-0.51-1.252-0.765-2.244-0.765c-1.398,0-2.664,0.482-3.797,1.447l-1.008-1.783
	c1.414-1.151,3.129-1.727,5.145-1.727c1.492,0,2.717,0.403,3.674,1.209c0.957,0.807,1.436,1.903,1.436,3.29
	c0,0.948-0.232,1.734-0.697,2.357s-1.049,1.111-1.752,1.464v0.047C76.859,230.399,77.582,230.886,78.121,231.599z M98.872,239.293
	c-1.203,0-2.344-0.23-3.422-0.69c-1.078-0.459-2.004-1.083-2.777-1.871c-0.773-0.787-1.387-1.729-1.84-2.824
	c-0.453-1.095-0.68-2.255-0.68-3.479c0-1.197,0.227-2.332,0.68-3.405c0.453-1.072,1.066-1.992,1.84-2.76
	c0.773-0.767,1.699-1.374,2.777-1.819c1.078-0.446,2.219-0.67,3.422-0.67c1.609,0,3.078,0.38,4.406,1.139
	c1.328,0.76,2.373,1.801,3.135,3.124s1.143,2.787,1.143,4.392c0,1.638-0.381,3.135-1.143,4.491s-1.807,2.425-3.135,3.204
	C101.95,238.903,100.481,239.293,98.872,239.293z M105.106,230.428c0-1.199-0.277-2.294-0.832-3.284
	c-0.555-0.989-1.309-1.767-2.262-2.331c-0.953-0.565-2-0.848-3.141-0.848c-1.148,0-2.201,0.282-3.158,0.848
	c-0.957,0.564-1.715,1.342-2.273,2.331c-0.559,0.99-0.838,2.085-0.838,3.284c0,1.239,0.279,2.371,0.838,3.396
	s1.316,1.827,2.273,2.407c0.957,0.581,2.01,0.871,3.158,0.871c1.141,0,2.188-0.29,3.141-0.871c0.953-0.58,1.707-1.383,2.262-2.407
	S105.106,231.667,105.106,230.428z M131.167,222.055V239h-2.379v-14.883h-5.262v1.969c0,1.391-0.042,2.65-0.128,3.779
	s-0.224,2.184-0.416,3.164s-0.446,1.834-0.762,2.561s-0.699,1.354-1.148,1.881s-0.979,0.934-1.588,1.219
	c-0.609,0.285-1.301,0.451-2.075,0.498v-2.191c1.395-0.188,2.388-1.169,2.98-2.945c0.591-1.775,0.887-4.439,0.887-7.991v-4.005
	H131.167z M152.164,239.293c-1.203,0-2.344-0.23-3.422-0.69c-1.078-0.459-2.004-1.083-2.777-1.871
	c-0.773-0.787-1.387-1.729-1.84-2.824c-0.453-1.095-0.68-2.255-0.68-3.479c0-1.197,0.227-2.332,0.68-3.405
	c0.453-1.072,1.066-1.992,1.84-2.76c0.773-0.767,1.699-1.374,2.777-1.819c1.078-0.446,2.219-0.67,3.422-0.67
	c1.609,0,3.078,0.38,4.406,1.139c1.328,0.76,2.373,1.801,3.135,3.124s1.143,2.787,1.143,4.392c0,1.638-0.381,3.135-1.143,4.491
	s-1.807,2.425-3.135,3.204C155.241,238.903,153.773,239.293,152.164,239.293z M158.398,230.428c0-1.199-0.277-2.294-0.832-3.284
	c-0.555-0.989-1.309-1.767-2.262-2.331c-0.954-0.565-2-0.848-3.141-0.848c-1.148,0-2.202,0.282-3.158,0.848
	c-0.958,0.564-1.715,1.342-2.273,2.331c-0.559,0.99-0.838,2.085-0.838,3.284c0,1.239,0.279,2.371,0.838,3.396
	c0.559,1.024,1.316,1.827,2.273,2.407c0.957,0.581,2.01,0.871,3.158,0.871c1.141,0,2.187-0.29,3.141-0.871
	c0.953-0.58,1.707-1.383,2.262-2.407S158.398,231.667,158.398,230.428z M176.348,239v-14.883h-5.801v-2.062h13.992v2.062h-5.812V239
	H176.348z M202.947,239.293c-1.203,0-2.344-0.23-3.422-0.69c-1.078-0.459-2.004-1.083-2.777-1.871
	c-0.773-0.787-1.387-1.729-1.84-2.824c-0.453-1.095-0.68-2.255-0.68-3.479c0-1.197,0.227-2.332,0.68-3.405
	c0.453-1.072,1.066-1.992,1.84-2.76c0.773-0.767,1.699-1.374,2.777-1.819c1.078-0.446,2.219-0.67,3.422-0.67
	c1.609,0,3.078,0.38,4.406,1.139c1.328,0.76,2.373,1.801,3.135,3.124s1.143,2.787,1.143,4.392c0,1.638-0.381,3.135-1.143,4.491
	s-1.807,2.425-3.135,3.204C206.025,238.903,204.556,239.293,202.947,239.293z M209.181,230.428c0-1.199-0.277-2.294-0.832-3.284
	c-0.555-0.989-1.309-1.767-2.262-2.331c-0.953-0.565-2-0.848-3.141-0.848c-1.148,0-2.201,0.282-3.158,0.848
	c-0.957,0.564-1.715,1.342-2.273,2.331c-0.559,0.99-0.838,2.085-0.838,3.284c0,1.239,0.279,2.371,0.838,3.396
	s1.316,1.827,2.273,2.407c0.957,0.581,2.01,0.871,3.158,0.871c1.141,0,2.188-0.29,3.141-0.871c0.953-0.58,1.707-1.383,2.262-2.407
	S209.181,231.667,209.181,230.428z M237.503,222.055V239h-2.379v-10.992c0-0.281,0.012-0.629,0.035-1.043
	c0.023-0.414,0.047-0.754,0.07-1.02l0.035-0.41h-0.047c-0.547,1.023-1.019,1.848-1.418,2.473L226.241,239h-2.332v-16.945h2.379
	v10.992c0,0.281-0.012,0.629-0.035,1.043c-0.024,0.414-0.047,0.754-0.071,1.02l-0.035,0.41h0.047
	c0.563-1.055,1.044-1.887,1.444-2.496l7.527-10.969H237.503z M234.327,217.836v0.352c0,0.945-0.345,1.695-1.037,2.25
	s-1.529,0.832-2.514,0.832c-0.977,0-1.812-0.277-2.508-0.832s-1.043-1.305-1.043-2.25v-0.352h1.875v0.3
	c0,0.458,0.166,0.815,0.499,1.072c0.332,0.257,0.724,0.386,1.177,0.386c0.461,0,0.861-0.13,1.202-0.392
	c0.339-0.26,0.509-0.623,0.509-1.088v-0.278H234.327z M268.81,235.109c0.531,0.611,1.197,1.097,1.998,1.455s1.682,0.537,2.643,0.537
	c0.945,0,1.877-0.194,2.795-0.584s1.721-0.928,2.408-1.613l1.277,1.694c-1.797,1.796-3.98,2.694-6.551,2.694
	c-1.289,0-2.48-0.229-3.574-0.684c-1.094-0.457-2.012-1.08-2.754-1.872c-0.742-0.791-1.322-1.729-1.74-2.812
	s-0.627-2.241-0.627-3.474c0-1.628,0.365-3.102,1.096-4.421s1.756-2.358,3.076-3.118c1.32-0.759,2.805-1.139,4.453-1.139
	c1.156,0,2.281,0.188,3.375,0.565s2.031,0.942,2.812,1.696l-1.195,1.776c-0.625-0.554-1.381-0.999-2.268-1.338
	s-1.764-0.509-2.631-0.509c-0.961,0-1.84,0.17-2.637,0.509s-1.457,0.8-1.98,1.385c-0.523,0.584-0.93,1.269-1.219,2.051
	c-0.289,0.783-0.434,1.623-0.434,2.519c0,0.896,0.146,1.748,0.439,2.554C267.866,233.788,268.278,234.497,268.81,235.109z
	 M295.76,239v-14.883h-5.801v-2.062h13.992v2.062h-5.812V239H295.76z M316.253,234.125L314.554,239h-2.426l6.07-16.945h2.52
	l6.07,16.945h-2.449l-1.699-4.875H316.253z M320.144,226.812c-0.086-0.266-0.186-0.6-0.299-1.002s-0.205-0.74-0.275-1.014
	l-0.105-0.41h-0.047c-0.234,1.023-0.449,1.832-0.645,2.426l-1.898,5.344h5.133L320.144,226.812z M351.816,222.055V239h-2.378v-7.441
	h-8.812V239h-2.379v-16.945h2.379v7.441h8.812v-7.441H351.816z M377.326,222.055v14.883h1.921v5.426h-2.191V239h-11.824v3.363
	h-2.191v-5.426h1.706c0.452-0.641,0.844-1.348,1.175-2.121s0.59-1.523,0.777-2.25c0.187-0.727,0.334-1.523,0.443-2.391
	s0.18-1.648,0.211-2.344s0.048-1.461,0.048-2.297v-3.48H377.326z M367.235,236.938h7.711v-12.82h-5.296v1.559
	C369.65,230.746,368.845,234.5,367.235,236.938z M393.542,234.125L391.843,239h-2.426l6.07-16.945h2.52l6.07,16.945h-2.449
	l-1.699-4.875H393.542z M397.433,226.812c-0.087-0.266-0.187-0.6-0.299-1.002c-0.113-0.402-0.205-0.74-0.275-1.014l-0.105-0.41
	h-0.047c-0.234,1.023-0.45,1.832-0.645,2.426l-1.898,5.344h5.133L397.433,226.812z M415.535,239v-16.945h6.21
	c1.56,0,2.832,0.486,3.818,1.459s1.479,2.256,1.479,3.85s-0.495,2.887-1.484,3.879c-0.99,0.992-2.26,1.488-3.811,1.488h-3.834V239
	H415.535z M421.371,230.668c1.008,0,1.809-0.297,2.402-0.891s0.891-1.398,0.891-2.414c0-1-0.295-1.791-0.885-2.373
	s-1.385-0.873-2.385-0.873h-3.48v6.551H421.371z M442.86,239v-14.883h-5.801v-2.062h13.992v2.062h-5.812V239H442.86z
	 M489.226,222.055V239h-2.379v-14.883h-5.262v1.969c0,1.391-0.043,2.65-0.128,3.779c-0.086,1.129-0.225,2.184-0.416,3.164
	s-0.445,1.834-0.762,2.561s-0.699,1.354-1.148,1.881s-0.979,0.934-1.589,1.219c-0.609,0.285-1.301,0.451-2.074,0.498v-2.191
	c1.396-0.188,2.388-1.169,2.979-2.945c0.592-1.775,0.888-4.439,0.888-7.991v-4.005H489.226z M506.285,233.023l7.512-10.969h2.355
	V239h-2.379v-10.992c0-0.281,0.012-0.629,0.036-1.043c0.023-0.414,0.047-0.754,0.07-1.02l0.036-0.41h-0.048
	c-0.547,1.023-1.02,1.848-1.418,2.473L504.891,239h-2.332v-16.945h2.379v10.992c0,0.281-0.012,0.629-0.035,1.043
	s-0.047,0.754-0.07,1.02l-0.035,0.41h0.047C505.406,234.465,505.887,233.633,506.285,233.023z M538.38,231.599
	c0.539,0.713,0.809,1.585,0.809,2.614s-0.262,1.932-0.786,2.707c-0.525,0.775-1.223,1.365-2.092,1.769
	c-0.87,0.403-1.841,0.604-2.911,0.604c-1.031,0-2.041-0.202-3.029-0.606c-0.988-0.403-1.811-0.96-2.467-1.668l1.324-1.615
	c0.469,0.511,1.061,0.936,1.775,1.273s1.451,0.507,2.209,0.507c1.047,0,1.896-0.277,2.549-0.831s0.979-1.307,0.979-2.258
	c0-0.88-0.29-1.569-0.869-2.068s-1.34-0.749-2.28-0.749h-2.089v-1.969h1.68c0.854,0,1.574-0.259,2.157-0.776
	c0.583-0.519,0.874-1.177,0.874-1.978c0-0.793-0.252-1.443-0.756-1.954c-0.504-0.51-1.252-0.765-2.244-0.765
	c-1.398,0-2.664,0.482-3.797,1.447l-1.008-1.783c1.414-1.151,3.129-1.727,5.145-1.727c1.492,0,2.717,0.403,3.674,1.209
	c0.957,0.807,1.436,1.903,1.436,3.29c0,0.948-0.232,1.734-0.697,2.357s-1.049,1.111-1.752,1.464v0.047
	C537.118,230.399,537.841,230.886,538.38,231.599z M555.193,233.023l7.513-10.969h2.354V239h-2.379v-10.992
	c0-0.281,0.012-0.629,0.036-1.043c0.023-0.414,0.047-0.754,0.071-1.02l0.035-0.41h-0.048c-0.547,1.023-1.02,1.848-1.418,2.473
	L553.799,239h-2.332v-16.945h2.379v10.992c0,0.281-0.012,0.629-0.035,1.043s-0.047,0.754-0.07,1.02l-0.035,0.41h0.047
	C554.314,234.465,554.795,233.633,555.193,233.023z M591.965,222.055V239h-2.379v-7.441h-8.812V239h-2.379v-16.945h2.379v7.441
	h8.812v-7.441H591.965z M605.274,239v-16.945h9.34v2.062h-6.961V239H605.274z M626.752,234.125L625.053,239h-2.426l6.07-16.945h2.52
	l6.07,16.945h-2.449l-1.699-4.875H626.752z M630.643,226.812c-0.086-0.266-0.186-0.6-0.299-1.002s-0.205-0.74-0.275-1.014
	l-0.105-0.41h-0.047c-0.234,1.023-0.449,1.832-0.645,2.426l-1.898,5.344h5.133L630.643,226.812z"/>
</svg>
