<?xml version="1.0" encoding="utf-8"?>
<!-- Generator: Adobe Illustrator 16.0.0, SVG Export Plug-In . SVG Version: 6.00 Build 0)  -->
<!DOCTYPE svg PUBLIC "-//W3C//DTD SVG 1.1//EN" "http://www.w3.org/Graphics/SVG/1.1/DTD/svg11.dtd">
<svg version="1.1" id="Слой_1" xmlns="http://www.w3.org/2000/svg" xmlns:xlink="http://www.w3.org/1999/xlink" x="0px" y="0px"
	 width="101px" height="36px" viewBox="0 0 101 36" enable-background="new 0 0 101 36" xml:space="preserve">
<g>
	<g>
		<path fill="#FFFFFF" d="M25.499,0.362c-1.775,0-3.342,0.31-4.701,0.932c-1.357,0.621-2.683,1.437-3.985,2.438V1.069H8.336V21.25
			h-8.33v5.307h8.33V36h8.477V25.35c1.093,0.561,2.169,0.996,3.222,1.307s2.331,0.465,3.84,0.465c1.631,0,3.158-0.303,4.588-0.908
			c1.43-0.607,2.707-1.5,3.833-2.68c1.084-1.127,1.96-2.557,2.627-4.279c0.667-1.733,1.004-3.652,1.004-5.757
			c0-4.086-0.916-7.293-2.748-9.631C31.356,1.535,28.793,0.362,25.499,0.362z M25.547,19.377c-1.101,1.266-2.772,1.904-5.014,1.904
			c-0.626,0-1.269-0.033-1.913-0.094c-0.643-0.062-1.245-0.203-1.808-0.412V7.92c0.763-0.442,1.575-0.777,2.427-1.017
			c0.844-0.234,1.671-0.35,2.467-0.35c1.896,0,3.286,0.56,4.17,1.685c0.876,1.119,1.317,2.928,1.317,5.414
			C27.194,16.2,26.64,18.111,25.547,19.377z M62.469,2.153c-2.138-1.438-5.615-2.152-10.438-2.152c-2.025,0-4.049,0.156-6.058,0.467
			c-2.016,0.31-3.479,0.582-4.371,0.807v6.168h0.779c0.691-0.256,1.824-0.621,3.415-1.103c1.583-0.474,3.069-0.715,4.468-0.715
			c2.322,0,4.082,0.272,5.271,0.808c1.197,0.536,1.792,1.515,1.792,2.921v0.14c-2.491,0.132-4.901,0.35-7.224,0.638
			c-2.322,0.287-4.274,0.776-5.842,1.452c-1.583,0.683-2.804,1.616-3.672,2.805c-0.859,1.18-1.294,2.703-1.294,4.574
			c0,2.332,0.844,4.25,2.54,5.755c1.695,1.5,3.801,2.254,6.315,2.254c1.061,0,2.041-0.086,2.941-0.264
			c0.892-0.172,1.751-0.443,2.587-0.809c0.595-0.271,1.229-0.645,1.904-1.109c0.675-0.475,1.245-0.879,1.695-1.213v2.711h8.404
			V8.903C65.683,5.835,64.614,3.59,62.469,2.153z M57.278,19.623c-0.659,0.543-1.422,0.986-2.29,1.32
			c-0.876,0.326-1.736,0.496-2.578,0.496c-1.069,0-1.856-0.07-2.354-0.217c-0.507-0.141-0.933-0.365-1.294-0.668
			c-0.377-0.305-0.61-0.621-0.707-0.955c-0.096-0.334-0.144-0.769-0.144-1.298c0-0.809,0.225-1.453,0.674-1.95
			c0.442-0.489,1.093-0.87,1.936-1.126c0.691-0.209,1.704-0.396,3.037-0.559c1.335-0.156,2.58-0.279,3.721-0.373V19.623z
			 M98.262,21.189V1.344H76.415c0,3.899-0.354,7.581-1.068,11.045c-0.716,3.473-1.672,6.4-2.861,8.8h-2.193v12.033h7.561v-6.416
			h15.58v6.416h7.561V21.189H98.262z M89.833,21.189h-9.465c0.9-1.795,1.663-3.892,2.298-6.306c0.635-2.409,1.085-5.019,1.351-7.83
			h5.816V21.189z"/>
	</g>
</g>
</svg>
