<?xml version="1.0" encoding="UTF-8"?>
<svg width="17px" height="9px" viewBox="0 0 17 9" version="1.1" xmlns="http://www.w3.org/2000/svg" xmlns:xlink="http://www.w3.org/1999/xlink">
    <!-- Generator: Sketch 42 (36781) - http://www.bohemiancoding.com/sketch -->
    <title>Combined Shape</title>
    <desc>Created with Sketch.</desc>
    <defs></defs>
    <g id="Page-1" stroke="none" stroke-width="1" fill="none" fill-rule="evenodd">
        <g id="Реестр-организаций" transform="translate(-1096.000000, -734.000000)" fill="#31851B">
            <g id="Group" transform="translate(100.000000, 725.000000)">
                <path d="M996,9 L1001,9 L1001,13 L996,13 L996,9 Z M996,14 L1001,14 L1001,18 L996,18 L996,14 Z M1002,9 L1007,9 L1007,13 L1002,13 L1002,9 Z M1002,14 L1007,14 L1007,18 L1002,18 L1002,14 Z M1008,9 L1013,9 L1013,13 L1008,13 L1008,9 Z M1008,14 L1013,14 L1013,18 L1008,18 L1008,14 Z" id="Combined-Shape"></path>
            </g>
        </g>
    </g>
</svg>