<?xml version="1.0" encoding="utf-8"?>
<!-- Generator: Adobe Illustrator 16.0.0, SVG Export Plug-In . SVG Version: 6.00 Build 0)  -->
<!DOCTYPE svg PUBLIC "-//W3C//DTD SVG 1.1//EN" "http://www.w3.org/Graphics/SVG/1.1/DTD/svg11.dtd">
<svg version="1.1" id="Слой_1" xmlns="http://www.w3.org/2000/svg" xmlns:xlink="http://www.w3.org/1999/xlink" x="0px" y="0px"
	 width="32px" height="32px" viewBox="0 0 32 32" enable-background="new 0 0 32 32" xml:space="preserve">
<path opacity="0.1" fill-rule="evenodd" clip-rule="evenodd" fill="#FFFFFF" d="M16,0c8.837,0,16,7.164,16,16
	c0,8.837-7.163,16-16,16C7.164,32,0,24.838,0,16C0,7.164,7.164,0,16,0z"/>
<path opacity="0.3" fill-rule="evenodd" clip-rule="evenodd" fill="#FFFFFF" d="M26.661,27.907v-0.244
	c-0.005-0.033-0.009-0.068-0.009-0.104c-0.087-3.248-2.808-5.891-6.065-5.891h-3.159l1.402,1.598
	c0.098,0.113,0.136,0.268,0.101,0.414l-2.033,8.274C16.599,31.972,16.303,32,16,32s-0.598-0.028-0.896-0.045l-2.034-8.274
	c-0.036-0.146,0.002-0.301,0.102-0.414l1.402-1.598h-3.173c-3.246,0-5.962,2.645-6.054,5.895c-0.001,0.029-0.004,0.059-0.008,0.088
	v0.256c-0.598-0.536-1.167-1.104-1.679-1.723c0.732-3.609,3.956-6.363,7.741-6.363h9.186c3.797,0,7.024,2.753,7.753,6.363
	C27.828,26.804,27.259,27.371,26.661,27.907z M15.804,21.669l-1.779,2.025l1.977,8.035l1.974-8.035l-1.778-2.025H15.804z
	 M23.586,11.792c0,4.18-3.401,7.582-7.582,7.582c-4.185,0-7.589-3.402-7.589-7.582c0-4.178,3.404-7.578,7.589-7.578
	C20.185,4.214,23.586,7.614,23.586,11.792z M10.263,11.792c0,3.16,2.575,5.732,5.741,5.732c3.161,0,5.732-2.572,5.732-5.732
	s-2.571-5.729-5.732-5.729C12.838,6.063,10.263,8.632,10.263,11.792z"/>
</svg>
