<svg xmlns="http://www.w3.org/2000/svg" viewBox="0 0 116.46 42.94"><defs><style>.cls-1,.cls-2{fill:#ffffff}.cls-1{fill-rule:evenodd}</style></defs><title>Ресурс 1</title><g id="Слой_2" data-name="Слой 2"><g id="Layer_1" data-name="Layer 1"><path class="cls-1" d="M31.35 16.28c0-3-.51-5.12-1.52-6.46a5.64 5.64 0 0 0-4.81-2 10.37 10.37 0 0 0-2.84.42 11.92 11.92 0 0 0-2.8 1.21v15.33a8 8 0 0 0 2.09.49c.74.07 1.48.11 2.21.11q3.88 0 5.78-2.27c1.26-1.51 1.9-3.79 1.9-6.83m10.07-.18a19.54 19.54 0 0 1-1.16 6.9 15.23 15.23 0 0 1-3 5.11 13.18 13.18 0 0 1-4.42 3.2 13 13 0 0 1-5.29 1.08 15.28 15.28 0 0 1-4.43-.56 21.12 21.12 0 0 1-3.72-1.56v12.7h-9.8V31.68H0v-6.33h9.61V1.27h9.78v3.18A23.72 23.72 0 0 1 24 1.54 12.54 12.54 0 0 1 29.4.43a10.48 10.48 0 0 1 8.86 4.18q3.17 4.18 3.17 11.49"/><path class="cls-2" d="M66 28.12c-.52.4-1.18.88-2 1.45a14.58 14.58 0 0 1-2.2 1.33 13.66 13.66 0 0 1-3 1 16.89 16.89 0 0 1-3.39.32 10.39 10.39 0 0 1-7.28-2.69 8.91 8.91 0 0 1-2.93-6.87 9.26 9.26 0 0 1 1.49-5.46A10 10 0 0 1 51 13.82a24.24 24.24 0 0 1 6.74-1.73c2.68-.34 5.46-.6 8.33-.76v-.17A3.5 3.5 0 0 0 64 7.67a14.94 14.94 0 0 0-6.08-1 17.46 17.46 0 0 0-5.15.85c-1.83.57-3.14 1-3.94 1.32H48V1.52c1-.27 2.71-.59 5-1A44.13 44.13 0 0 1 60 0q8.34 0 12 2.57t3.71 8.05v20.74H66zm0-4.72V17c-1.32.11-2.75.26-4.29.44a21.51 21.51 0 0 0-3.5.67 4.81 4.81 0 0 0-2.21 1.4 3.39 3.39 0 0 0-.78 2.33 5.91 5.91 0 0 0 .17 1.55 2.32 2.32 0 0 0 .82 1.14 3.86 3.86 0 0 0 1.49.8 10.13 10.13 0 0 0 2.71.26 8.25 8.25 0 0 0 3-.59A9.37 9.37 0 0 0 66 23.41m37.59 1.87V8.41h-6.71a59.9 59.9 0 0 1-1.56 9.34 39.69 39.69 0 0 1-2.65 7.52zm12.87 14.35h-8.72V32h-18v7.65h-8.68V25.28h2.53a44.6 44.6 0 0 0 3.3-10.5A67.31 67.31 0 0 0 88.12 1.6h25.19v23.68h3.15z"/></g></g></svg>