<?xml version="1.0" encoding="UTF-8"?>
<svg width="152px" height="38px" viewBox="0 0 152 38" version="1.1" xmlns="http://www.w3.org/2000/svg" xmlns:xlink="http://www.w3.org/1999/xlink">
    <!-- Generator: Sketch 42 (36781) - http://www.bohemiancoding.com/sketch -->
    <title>Sberbank</title>
    <desc>Created with Sketch.</desc>
    <defs></defs>
    <g id="Page-1" stroke="none" stroke-width="1" fill="none" fill-rule="evenodd">
        <g id="Реестр-организаций" transform="translate(-100.000000, -2198.000000)" fill-rule="nonzero" fill="#FFFFFF">
            <g id="footer" transform="translate(0.000000, 1795.000000)">
                <g id="Sberbank" transform="translate(100.000000, 403.000000)">
                    <g id="Слой_1">
                        <path d="M146.598985,4.80816327 L150.186802,4.80816327 C149.54331,5.16955102 148.682234,5.85510204 147.600487,6.86326531 L144.014213,10.5469388 L145.981726,13.377551 C148.039513,16.3244898 149.839594,18.5734694 151.382741,20.1244898 L146.251777,20.1244898 C145.609056,18.6246531 144.77267,17.1 143.744162,15.5489796 L141.429442,12.0591837 L143.436305,9.5 C145.234843,7.14787755 146.290355,5.58367347 146.598985,4.80816327 Z M141.159391,6.51428571 L141.159391,18.3795918 L141.313706,19.2706531 C141.416325,19.4257551 141.648569,19.5552653 142.006579,19.6584082 L142.006579,20.1244898 L137.031472,20.1244898 L137.031472,19.6591837 L137.725117,19.2714286 C137.827736,19.117102 137.879431,18.8193061 137.879431,18.3803673 L137.879431,6.51428571 L137.725117,5.66122449 C137.622497,5.48053061 137.389482,5.36420408 137.031472,5.3122449 L137.031472,4.80816327 L142.00735,4.80816327 L142.00735,5.3122449 C141.647797,5.36342857 141.415553,5.48053061 141.314477,5.66122449 L141.159391,6.51428571 Z M133.752284,6.51428571 L133.752284,18.3795918 L133.906599,19.2706531 L134.601015,19.6584082 L134.601015,20.1244898 L129.585787,20.1244898 L129.585787,19.6591837 C129.94534,19.5560408 130.203046,19.4265306 130.35736,19.2714286 L130.473096,18.3795918 L130.473096,12.2142857 L124.608365,12.2142857 L124.608365,18.3795918 L124.76268,19.2706531 C124.866071,19.4257551 125.096772,19.5552653 125.455553,19.6584082 L125.455553,20.1244898 L120.401746,20.1244898 L120.401746,19.6591837 C120.813766,19.5560408 121.069929,19.4265306 121.17332,19.2714286 L121.327635,18.3803673 L121.327635,6.51428571 L121.17332,5.66122449 C121.069929,5.48053061 120.813766,5.36420408 120.401746,5.3122449 L120.401746,4.80816327 L125.455553,4.80816327 L125.455553,5.3122449 C125.095228,5.36342857 124.864528,5.48053061 124.76268,5.66122449 L124.608365,6.51428571 L124.608365,11.2061224 L130.473096,11.2061224 L130.473096,6.51428571 L130.358132,5.66122449 C130.203817,5.48053061 129.946112,5.36420408 129.586558,5.3122449 L129.586558,4.80816327 L134.601787,4.80816327 L134.601787,5.3122449 C134.24069,5.36342857 134.00999,5.48053061 133.907371,5.66122449 L133.752284,6.51428571 Z M131.939086,30.322449 L134.369543,30.322449 L133.366497,35.4408163 L132.673624,35.4408163 L133.136569,33.0755102 L131.939086,33.0755102 L130.280203,35.4408163 L129.508629,35.4408163 L131.206091,33.0359592 C130.512447,32.828898 130.164467,32.3891837 130.164467,31.7183673 C130.164467,31.3562041 130.318782,31.046 130.627411,30.7877551 C130.936041,30.477551 131.374294,30.322449 131.939086,30.322449 Z M131.784772,32.4938776 L133.250761,32.4938776 L133.558619,30.9033061 L131.939086,30.9033061 C131.578761,30.9033061 131.295594,30.9932653 131.090355,31.1755102 C130.936041,31.3306122 130.858112,31.5244898 130.858112,31.7571429 C130.858883,32.2488163 131.167513,32.4938776 131.784772,32.4938776 Z M125.843655,31.6408163 L125.343675,34.2 C125.729462,34.692449 126.166173,34.9367347 126.654579,34.9367347 C127.143756,34.9367347 127.568893,34.692449 127.926904,34.2 C128.288,33.6835102 128.467005,33.0514694 128.467005,32.3007755 C128.467005,31.8098776 128.364386,31.4353061 128.158376,31.1770612 C127.953137,30.9188163 127.658396,30.7893061 127.272609,30.7893061 C126.705503,30.7877551 126.229442,31.0715918 125.843655,31.6408163 Z M126.036548,30.322449 L125.920812,30.9428571 L126.57665,30.4 L127.426152,30.2061224 C127.965482,30.2061224 128.390619,30.3868163 128.698477,30.7489796 C129.007107,31.1111429 129.162193,31.6392653 129.162193,32.3387755 C129.162193,33.2693878 128.919147,34.0317143 128.42997,34.6265306 C127.965482,35.2205714 127.386802,35.5168163 126.693929,35.5168163 L125.843655,35.3632653 L125.226396,34.8971837 L124.725645,37.4959184 L124.032,37.4959184 L125.420832,30.322449 L126.036548,30.322449 L126.036548,30.322449 Z M138.227411,30.322449 L138.806091,34.8211837 L139.306071,34.8211837 L138.998985,36.4117551 L138.458883,36.4117551 L138.573848,35.4423673 L135.141117,35.4423673 L134.869523,36.4117551 L134.369543,36.4117551 L134.639594,34.8211837 L135.102538,34.8211837 L137.224365,30.322449 L138.227411,30.322449 Z M137.571574,30.9816327 L135.796954,34.8204082 L138.073096,34.8204082 L137.725888,30.9816327 L137.571574,30.9816327 L137.571574,30.9816327 Z M139.963452,33.3081633 C139.963452,32.4287347 140.219614,31.6927755 140.735025,31.0971837 C141.19797,30.5023673 141.762761,30.2061224 142.431716,30.2061224 C142.997279,30.2061224 143.435533,30.4131837 143.742619,30.8265306 C144.077482,31.2142857 144.244142,31.7571429 144.244142,32.455102 C144.244142,33.2817959 143.999553,34.0061224 143.511147,34.6273061 C143.022741,35.2221224 142.456406,35.5183673 141.813685,35.5183673 C141.248893,35.5183673 140.798294,35.3244898 140.463431,34.9367347 C140.130883,34.5489796 139.963452,34.0061224 139.963452,33.3081633 Z M151.382741,25.4755102 L39.7360406,25.4755102 L39.7360406,23.9632653 L151.382741,23.9632653 L151.382741,25.4755102 Z M147.061929,30.322449 L147.640609,34.7428571 L149.762437,30.322449 L150.881218,30.322449 L149.878173,35.4423673 L149.222335,35.4423673 L150.071066,30.9436327 L147.833503,35.4423673 L147.177665,35.4423673 L146.521827,30.9428571 L145.634518,35.4415918 L144.97868,35.4415918 L145.981726,30.3216735 L147.061929,30.3216735 L147.061929,30.322449 Z M143.24264,31.2142857 C143.010396,30.9296735 142.714112,30.7877551 142.35533,30.7877551 C141.918619,30.7877551 141.532832,31.0320408 141.19797,31.5244898 C140.837645,32.0409796 140.657868,32.6730204 140.657868,33.4237143 C140.657868,33.8897959 140.773604,34.2643673 141.005076,34.5474286 C141.211858,34.8056735 141.481137,34.9351837 141.815228,34.9351837 C142.278944,34.9351837 142.690193,34.6901224 143.050518,34.1992245 C143.386152,33.6827347 143.551269,33.0607755 143.551269,32.3387755 C143.551269,31.8734694 143.447878,31.498898 143.24264,31.2142857 Z M109.486294,5.3122449 L109.486294,4.80816327 L113.883492,4.80816327 C113.933645,5.50612245 114.115736,6.25604082 114.422822,7.05714286 L117.663431,16.2081633 C118.203533,17.8111429 118.730518,19.1163265 119.245157,20.1244898 L115.387289,20.1244898 L113.729949,14.6183673 L108.828914,14.6183673 L107.787289,18.2632653 L107.47866,20.1244898 L104.700995,20.1244898 L109.637523,8.64693878 C110.127472,7.4324898 110.370518,6.60502041 110.370518,6.16530612 C110.373604,5.67440816 110.07732,5.38979592 109.486294,5.3122449 Z M111.299492,7.36734694 L109.216244,13.5326531 L113.382741,13.5326531 L111.299492,7.36734694 Z M103.506599,8.14285714 L102.656325,8.14285714 L102.463431,7.48367347 C102.257421,6.7337551 101.948792,6.24285714 101.538315,6.01020408 L99.4164873,5.73877551 L97.3725888,5.73877551 C96.9088731,5.73877551 96.6010152,5.81632653 96.4467005,5.97142857 C96.3186193,6.10093878 96.2538071,6.33281633 96.2538071,6.66938776 L96.2538071,10.3142857 L97.1025381,10.3142857 C99.5715736,10.3142857 101.282924,10.5601224 102.233503,11.0510204 C103.597645,11.7233878 104.278173,13.0417551 104.278173,15.0061224 C104.278173,16.9193061 103.738071,18.2888571 102.656325,19.1163265 C101.705746,19.7886939 100.227411,20.1244898 98.2197766,20.1244898 L92.1258883,20.1244898 L92.1258883,19.6591837 L92.8581117,19.2714286 L92.9730761,18.3803673 L92.9730761,6.51428571 L92.8581117,5.66122449 C92.7547208,5.48053061 92.5116751,5.36420408 92.1258883,5.3122449 L92.1258883,4.80816327 L103.506599,4.80816327 L103.506599,8.14285714 Z M96.2538071,11.2836735 L96.2538071,17.8367347 C96.2538071,18.354 96.3440812,18.6897959 96.5238579,18.844898 C96.7314112,19.0519592 97.0901929,19.155102 97.6040609,19.155102 L98.0670051,19.155102 C99.046132,19.155102 99.764467,18.8185306 100.228183,18.1469388 C100.639431,17.5265306 100.846213,16.531551 100.846213,15.1612245 C100.846213,13.8172653 100.627086,12.8610612 100.188832,12.2918367 C99.7258883,11.6194694 98.8640406,11.2836735 97.6040609,11.2836735 L96.2538071,11.2836735 L96.2538071,11.2836735 Z M97.2182741,28.655102 C97.5269036,28.9645306 97.6812183,29.3918367 97.6812183,29.9339184 C97.6812183,30.4 97.5392487,30.7877551 97.2568528,31.0971837 C96.9999188,31.3810204 96.5886701,31.6004898 96.022335,31.7571429 C96.818599,32.0929388 97.2182741,32.6226122 97.2182741,33.3469388 C97.2182741,34.0193061 96.986802,34.5357959 96.5238579,34.8979592 C96.0879188,35.2601224 95.4313096,35.4408163 94.5563452,35.4408163 L92.1258883,35.4408163 L93.4761421,28.1890204 L95.7515127,28.1890204 C96.3957766,28.1897959 96.8834112,28.344898 97.2182741,28.655102 Z M94.093401,28.8489796 L93.5918782,31.3693878 L95.0200609,31.3693878 C95.6380914,31.3693878 96.1126091,31.2398776 96.4482437,30.9816327 C96.7838782,30.6977959 96.9489949,30.3480408 96.9489949,29.9339184 C96.9489949,29.5461633 96.8463756,29.2739592 96.6411371,29.1188571 C96.409665,28.9389388 96.0624569,28.8474286 95.5987411,28.8474286 L94.093401,28.8489796 L94.093401,28.8489796 Z M98.8385787,33.3081633 C98.8385787,33.8254286 98.968203,34.2131837 99.2243655,34.4714286 C99.4558376,34.7552653 99.7907005,34.8979592 100.227411,34.8979592 L101.113178,34.6265306 L101.614701,33.9285714 L102.15403,34.1612245 L101.382457,35.1306122 C101.047594,35.3888571 100.636345,35.5183673 100.147168,35.5183673 C99.5553706,35.5183673 99.0793096,35.3113061 98.7189848,34.8979592 C98.3586599,34.4846122 98.1796548,33.9285714 98.1796548,33.2306122 C98.1796548,32.4046939 98.4111269,31.6943265 98.8740711,31.0979592 C99.3370152,30.5039184 99.9156954,30.2076735 100.610112,30.2076735 C101.098518,30.2076735 101.484305,30.3371837 101.767472,30.5954286 C102.049096,30.8280816 102.28134,31.1902449 102.460345,31.6795918 L101.809137,31.7959184 C101.62936,31.123551 101.230457,30.7877551 100.613198,30.7877551 C100.148711,30.7877551 99.7374619,31.0204082 99.3771371,31.4849388 C99.0191269,31.9758367 98.8385787,32.5853878 98.8385787,33.3081633 Z M94.7878173,31.9897959 L93.4769137,31.9897959 L92.9761624,34.7816327 L94.6736244,34.7816327 C95.2384162,34.7816327 95.6766701,34.652898 95.9845279,34.3938776 C96.2923858,34.1364082 96.4482437,33.7866531 96.4482437,33.3469388 C96.4482437,33.0103673 96.3055025,32.7001633 96.0238782,32.4163265 C95.6890152,32.1324898 95.2754518,31.9897959 94.7878173,31.9897959 Z M107.325888,32.8816327 L103.739614,32.8816327 L103.700264,33.3081633 C103.700264,33.8254286 103.828345,34.2255918 104.086051,34.5102041 C104.318294,34.7948163 104.640041,34.9367347 105.050518,34.9367347 C105.411614,34.9367347 105.719472,34.8211837 105.975635,34.5877551 L106.633015,33.7346939 L107.211695,34.044898 L106.247228,35.0918367 C105.886904,35.376449 105.449421,35.5183673 104.935553,35.5183673 C104.343756,35.5183673 103.880812,35.3244898 103.546721,34.9367347 C103.211858,34.5241633 103.045198,33.9805306 103.045198,33.3081633 C103.045198,32.4031429 103.277442,31.6671837 103.739614,31.0971837 C104.228792,30.5023673 104.832934,30.2061224 105.552812,30.2061224 C106.145381,30.2061224 106.59598,30.3868163 106.903066,30.7489796 C107.237929,31.085551 107.404589,31.574898 107.404589,32.220898 L107.325888,32.8816327 Z M106.438579,31.1755102 C106.207107,30.9172653 105.910051,30.7877551 105.551269,30.7877551 C105.088325,30.7877551 104.729543,30.9296735 104.471838,31.2142857 C104.214132,31.4469388 104.008122,31.8098776 103.853807,32.3 L106.670051,32.3 L106.708629,31.9897959 C106.708629,31.6795918 106.619127,31.4081633 106.438579,31.1755102 Z M108.097462,35.4408163 L109.100508,30.322449 L111.954558,30.322449 L111.839594,30.9040816 L109.640609,30.9040816 L108.753299,35.4408163 L108.097462,35.4408163 Z M113.845685,30.9816327 L112.071066,34.8204082 L114.347208,34.8204082 L114,30.9816327 L113.845685,30.9816327 Z M114.501523,30.322449 L115.080203,34.8211837 L115.580183,34.8211837 L115.273096,36.4117551 L114.771574,36.4117551 L114.848731,35.4423673 L111.415228,35.4423673 L111.143635,36.4117551 L110.643655,36.4117551 L110.913706,34.8211837 L111.37665,34.8211837 L113.498477,30.322449 L114.501523,30.322449 Z M116.353299,34.0836735 C116.353299,33.5408163 116.584772,33.1274694 117.047716,32.8420816 C117.536893,32.5326531 118.218193,32.376 119.091614,32.376 L119.785259,32.376 L119.825381,31.7959184 C119.825381,31.4593469 119.735878,31.2142857 119.55533,31.0591837 C119.34932,30.8784898 119.066152,30.7877551 118.705827,30.7877551 C118.370193,30.7877551 117.999066,30.9816327 117.587817,31.3693878 L117.16268,30.9428571 C117.728244,30.4504082 118.28069,30.2061224 118.820792,30.2061224 C119.33466,30.2061224 119.74668,30.3480408 120.056081,30.6326531 C120.363939,30.9172653 120.519797,31.2794286 120.519797,31.7183673 L120.441868,32.4938776 L120.095431,34.2 C120.016731,34.5621633 119.979695,34.9755102 119.979695,35.4423673 L119.323858,35.4423673 L119.284508,34.8607347 L118.590863,35.3260408 L117.780711,35.5199184 C117.369462,35.5199184 117.034599,35.378 116.776893,35.0933878 C116.493726,34.8072245 116.353299,34.4714286 116.353299,34.0836735 Z M119.169543,32.9204082 C117.755249,32.9204082 117.047716,33.2817959 117.047716,34.0053469 C117.047716,34.2643673 117.124873,34.4830612 117.279188,34.6653061 C117.458193,34.846 117.678863,34.9367347 117.935025,34.9367347 C118.320812,34.9367347 118.810761,34.7180408 119.401015,34.277551 L119.671066,32.9204082 L119.169543,32.9204082 Z M90.7756345,9.18979592 C90.7756345,10.9734694 90.235533,12.2530612 89.1537868,13.0285714 C88.2286701,13.7009388 86.7881421,14.0367347 84.8329746,14.0367347 L83.2898274,14.0367347 L83.2898274,18.3795918 L83.4433706,19.2706531 C83.5212995,19.4257551 83.7643452,19.5552653 84.1755939,19.6584082 L84.1755939,20.1244898 L79.1603655,20.1244898 L79.1603655,19.6591837 L79.8547817,19.2714286 L80.0090964,18.3803673 L80.0090964,6.51428571 L79.8547817,5.66122449 C79.7521624,5.48053061 79.5199188,5.36420408 79.1603655,5.3122449 L79.1603655,4.80816327 L85.487269,4.80816327 C87.2101929,4.80816327 88.4701726,5.06640816 89.2679797,5.58367347 C90.2741117,6.25604082 90.7756345,7.45808163 90.7756345,9.18979592 Z M83.5228426,5.89387755 C83.3685279,5.99702041 83.2913706,6.22967347 83.2913706,6.59183673 L83.2913706,13.0673469 L84.8345178,13.0673469 C85.785868,13.0673469 86.4548223,12.7051837 86.8406091,11.9816327 C87.1762437,11.3356327 87.342132,10.3530612 87.342132,9.03469388 C87.342132,6.83767347 86.4278173,5.73877551 84.6030457,5.73877551 L84.2172589,5.73877551 L83.5228426,5.89387755 Z M76.848731,8.14285714 L76.0385787,8.14285714 L75.8456853,7.48367347 C75.5887513,6.7337551 75.2670051,6.24285714 74.8812183,6.01020408 L72.7979695,5.73877551 L71.1005076,5.73877551 L70.4832487,5.89387755 L70.328934,6.4755102 L70.328934,11.2061224 L72.3350254,11.2061224 C73.7238579,11.2061224 74.6366294,11.0510204 75.0741117,10.7408163 L75.0741117,12.6795918 C74.637401,12.3693878 73.7238579,12.2142857 72.3350254,12.2142857 L70.328934,12.2142857 L70.328934,17.9530612 C70.328934,18.4183673 70.4832487,18.7417551 70.7918782,18.922449 L72.7208122,19.155102 L73.1451777,19.155102 L75.2284264,18.844898 C75.5887513,18.6122449 75.8719188,18.0437959 76.0771574,17.1387755 L76.2314721,16.5571429 L77.1959391,16.5571429 L77.1959391,20.1244898 L66.2010152,20.1244898 L66.2010152,19.6591837 C66.586802,19.5560408 66.8313909,19.4265306 66.9340102,19.2714286 L67.0883249,18.3803673 L67.0883249,6.51428571 L66.9340102,5.66122449 C66.8313909,5.48053061 66.586802,5.36420408 66.2010152,5.3122449 L66.2010152,4.80816327 L76.848731,4.80816327 L76.848731,8.14285714 Z M63.693401,8.14285714 L62.8832487,8.14285714 L62.6903553,7.48367347 C62.4588832,6.7337551 62.1371371,6.24285714 61.7258883,6.01020408 L59.6812183,5.73877551 L57.5593909,5.73877551 C57.1219086,5.73877551 56.8132792,5.81632653 56.6335025,5.97142857 C56.5563452,6.10093878 56.5177665,6.33281633 56.5177665,6.66938776 L56.5177665,10.3142857 L57.3664975,10.3142857 C59.8100711,10.3142857 61.5198782,10.5601224 62.4974619,11.0510204 C63.834599,11.7233878 64.5035533,13.0417551 64.5035533,15.0061224 C64.5035533,16.9193061 63.9634518,18.2888571 62.8832487,19.1163265 C61.9573604,19.7886939 60.4782538,20.1244898 58.4467005,20.1244898 L52.3126904,20.1244898 L52.3126904,19.6591837 C52.7247107,19.5560408 52.9816447,19.4265306 53.084264,19.2714286 L53.2385787,18.3795918 L53.2385787,6.51428571 L53.084264,5.66122449 C52.9816447,5.48053061 52.7247107,5.36420408 52.3126904,5.3122449 L52.3126904,4.80816327 L63.693401,4.80816327 L63.693401,8.14285714 Z M48.3390863,6.04897959 C47.8761421,5.71318367 47.156264,5.54489796 46.1786802,5.54489796 C44.635533,5.54489796 43.5422132,6.11334694 42.8994924,7.25102041 C42.3593909,8.23359184 42.0893401,9.83579592 42.0893401,12.0591837 C42.0893401,14.2825714 42.3848528,15.923551 42.9766497,16.9836735 C43.6965279,18.3020408 44.9310457,18.9612245 46.680203,18.9612245 C47.9664162,18.9612245 49.2395127,18.6510204 50.4994924,18.0306122 L50.9624365,19 C49.4964467,19.9042449 47.7735228,20.3571429 45.7928934,20.3571429 C40.9574416,20.3571429 38.5401015,17.7847755 38.5401015,12.6408163 C38.5401015,7.23861224 41.0477157,4.53673469 46.0629442,4.53673469 C47.9918782,4.53673469 49.4709848,4.76938776 50.4994924,5.23469388 L50.4994924,8.41428571 L49.5350254,8.41428571 L49.2649746,7.48367347 C49.0589645,6.83767347 48.750335,6.35918367 48.3390863,6.04897959 Z M56.5177665,11.2836735 L56.5177665,17.8367347 C56.5177665,18.354 56.5949239,18.6897959 56.7492386,18.844898 C56.9552487,19.0519592 57.3279188,19.155102 57.8680203,19.155102 L58.2923858,19.155102 C60.1441624,19.155102 61.0700508,17.823551 61.0700508,15.1612245 C61.0700508,13.8172653 60.8516954,12.8610612 60.4142132,12.2918367 C59.9258071,11.6194694 59.0508426,11.2836735 57.7908629,11.2836735 L56.5177665,11.2836735 L56.5177665,11.2836735 Z" id="Shape"></path>
                        <path d="M25.2690355,2.36530612 L26.6192893,3.60612245 L9.56751269,13.455102 L1.31167513,8.64693878 L2.08324873,7.09591837 L9.56751269,11.4 L25.2690355,2.36530612 Z M21.835533,0.387755102 L23.648731,1.31836735 L9.56751269,9.46122449 L3.00913706,5.7 L4.12791878,4.34285714 L9.56751269,7.48367347 L21.835533,0.387755102 Z M27.8152284,4.88571429 L28.8182741,6.24285714 L9.56751269,17.3714286 L0.270050761,12.0204082 L0.694416244,10.3142857 L9.56751269,15.4326531 L27.8152284,4.88571429 Z" id="Shape"></path>
                        <path d="M30.5928934,9.8877551 C31.1584569,11.4907347 31.4416244,13.1704898 31.4416244,14.9285714 C31.4416244,16.6866531 31.1584569,18.3927755 30.5928934,20.0469388 L30.2071066,21.0954286 C29.4100711,22.9822449 28.2912893,24.6627755 26.8507614,26.1362449 C25.3847716,27.5825714 23.7135431,28.6954286 21.835533,29.4709388 C19.8556751,30.3247755 17.8110051,30.7497551 15.7015228,30.7497551 C13.5665787,30.7497551 11.5219086,30.322449 9.56751269,29.4709388 C7.74119797,28.6954286 6.08231472,27.5825714 4.59086294,26.1362449 C3.1248731,24.6627755 2.00609137,22.9822449 1.23451777,21.0954286 C0.411248731,19.1031429 0,17.0480408 0,14.9285714 L0,13.8816327 L9.56751269,19.3489796 L29.7441624,7.71632653 L30.5928934,9.8877551 Z" id="Shape"></path>
                    </g>
                </g>
            </g>
        </g>
    </g>
</svg>