<?xml version="1.0" encoding="UTF-8"?>
<svg width="123px" height="34px" viewBox="0 0 123 34" version="1.1" xmlns="http://www.w3.org/2000/svg" xmlns:xlink="http://www.w3.org/1999/xlink">
    <!-- Generator: Sketch 42 (36781) - http://www.bohemiancoding.com/sketch -->
    <title>VTB24_Logo</title>
    <desc>Created with Sketch.</desc>
    <defs></defs>
    <g id="Page-1" stroke="none" stroke-width="1" fill="none" fill-rule="evenodd">
        <g id="Реестр-организаций" transform="translate(-315.000000, -2199.000000)" fill-rule="nonzero" fill="#FFFFFF">
            <g id="footer" transform="translate(0.000000, 1795.000000)">
                <g id="VTB24_Logo" transform="translate(315.000000, 404.000000)">
                    <g id="Layer_1">
                        <path d="M36.4937467,11.3880755 L36.1430522,11.3880755 L36.1430522,33.7180566 L45.1512768,33.7180566 C49.3425901,33.7180566 52.050517,31.2091132 52.050517,27.3266981 C52.050517,25.3851698 51.4278094,23.9956604 50.0320966,22.8223396 C49.5227546,22.391566 48.956248,22.0913396 48.3656554,21.8514151 C48.8204021,21.6268868 49.2545953,21.3625849 49.6377258,21.0174528 C50.6682924,20.0577547 51.2103916,18.7202075 51.2103916,17.1440189 C51.2103916,15.5152264 50.6053473,14.1680566 49.3608956,13.0252075 C47.8437885,11.6616792 46.103483,11.3880755 43.7867154,11.3880755 L36.4937467,11.3880755 Z M43.2882924,15.7833774 C43.6646789,15.7833774 44.366389,15.7833774 44.951201,16.0345283 C45.5848277,16.304283 45.978235,17.0141132 45.978235,17.8907358 C45.978235,18.4870189 45.7759112,19.0759245 45.4512298,19.4265094 C44.946705,19.9855849 44.3561123,20.0304906 43.6919765,20.0304906 L41.1276031,20.0304906 L41.1276031,15.7833774 L43.2882924,15.7833774 Z M43.9084308,24.3154528 C44.5610052,24.3154528 45.2350966,24.3828113 45.7450809,24.8693962 C46.1709243,25.2706604 46.4448642,26.027 46.4448642,26.7964906 C46.4448642,27.4402453 46.2528172,28.0820755 45.9181802,28.5571132 C45.3648407,29.3169811 44.7626867,29.4658113 43.908752,29.4658113 L41.1895849,29.4658113 L41.1895849,24.3154528 C41.7403551,24.3154528 43.9084308,24.3154528 43.9084308,24.3154528 Z" id="Shape"></path>
                        <path d="M70.0605431,11.3880755 L52.2939478,11.3880755 L52.2939478,15.6775283 C52.2939478,15.6775283 57.9432768,15.688434 58.5688747,15.6893962 L58.5688747,33.7642453 L63.6134804,33.7642453 L63.6134804,15.6842642 C64.2268747,15.6823396 69.108658,15.6842642 69.108658,15.6842642 L70.5624987,11.3880755 L70.0605431,11.3880755 L70.0605431,11.3880755 Z" id="Shape"></path>
                        <path d="M86.4262872,11.3880755 L71.7937833,11.3880755 L71.7937833,33.7469245 L80.1632428,33.7469245 C82.0586632,33.7469245 83.8375065,33.2706038 85.0424569,32.4392075 C86.2785587,31.5946604 87.7539164,29.9180755 87.7539164,26.7288113 C87.7539164,23.7377736 86.3228773,22.1307925 85.4715117,21.4389245 C84.561376,20.7056792 82.8705274,19.8319434 79.9776188,19.8319434 L76.8271488,19.8319434 L76.8271488,15.6877925 L85.295201,15.6877925 L86.7766606,11.3880755 L86.4262872,11.3880755 Z M79.3526632,24.0880377 C80.0607963,24.0880377 80.7326397,24.2612453 81.1459582,24.5537736 C81.8033499,25.0121321 82.1219295,25.7232453 82.1219295,26.7288113 C82.1219295,27.7860189 81.810094,28.2989057 81.5746919,28.5923962 C81.1299008,29.1540377 80.4535614,29.4266792 79.5071358,29.4266792 L76.8268277,29.4266792 L76.8268277,24.0880377 L79.3526632,24.0880377 Z" id="Shape"></path>
                        <path d="M91.0126136,12.3631698 C91.0119713,12.3634906 90.9262245,12.4077547 90.8523603,12.4456038 C90.851718,12.6319623 90.8501123,16.7559057 90.8497911,17.2277358 C91.0986815,17.1064906 91.4660757,16.9284717 91.4660757,16.9284717 C91.911188,16.6622453 94.3014987,15.2945472 96.4599399,15.1826038 C97.3504856,15.1357736 98.1491828,15.402 98.7079817,15.9318868 C99.1646554,16.3642642 99.4161149,16.9432264 99.4161149,17.562283 C99.4161149,19.6135094 97.9934256,20.6469811 96.2749582,21.6939245 C92.0534569,24.2217925 89.4373786,26.8564717 89.4373786,32.1749057 C89.4373786,32.1749057 89.442517,33.4361132 89.4438016,33.708434 C89.7675196,33.7081132 103.155893,33.7061887 103.480253,33.7061887 C103.480574,33.4059623 103.479611,29.6938679 103.480253,29.393 L94.7864334,29.393 L94.8381384,29.1848302 C95.1926867,27.7642075 96.0906188,26.6848679 97.8418433,25.5744151 C97.8447337,25.5728113 100.025655,24.2285283 100.025655,24.2285283 C102.592277,22.6587547 104.218896,20.0606415 104.270601,17.4464906 L104.270601,17.2906038 C104.270601,15.5495472 103.688679,14.0371887 102.586496,12.9148679 C101.297726,11.6004151 99.4161149,10.9063019 97.1443081,10.9063019 C95.1650679,10.9063019 92.7586997,11.4782075 91.0126136,12.3631698 Z" id="Shape"></path>
                        <path d="M113.631768,11.3608113 C113.533817,11.5125283 104.68135,25.3729811 104.628681,25.4547736 L104.628681,29.3865849 L114.613198,29.3865849 L114.613198,33.7510943 L118.79295,33.7510943 L118.79295,29.3865849 L121.546159,29.3865849 L123,25.0801321 L118.792629,25.0801321 L118.792629,20.6697547 L114.612877,20.6697547 L114.612877,25.0801321 L109.680352,25.0801321 C110.036828,24.4723019 117.197162,13.224717 118.39023,11.3608113 L113.631768,11.3608113 Z" id="Shape"></path>
                        <path d="M20.9116057,11.3871132 L3.90324282,11.3871132 C3.90324282,11.3871132 4.41611749,13.0296981 5.01088512,13.8703962 L20.1437389,13.8703962 C20.1437389,13.8703962 23.0318303,16.1313962 24.4134125,20.0837358 L8.50691123,20.0837358 C5.76237337,17.8480755 3.70702089,14.8262453 2.62763969,11.3871132 C2.76444909,10.966283 2.91635248,10.5525094 3.08270757,10.146434 L20.903577,10.146434 C22.293188,9.18160377 23.6741279,7.66283019 23.6741279,7.66283019 L4.32940731,7.66283019 C4.58600522,7.23750943 4.85898172,6.8240566 5.14833681,6.42279245 L24.6857467,6.42279245 C25.2015117,5.79828302 26.237859,3.93918868 26.237859,3.93918868 L7.30324543,3.93918868 C7.75831332,3.50103774 8.23586162,3.08726415 8.7342846,2.69850943 L26.8188172,2.69850943 C27.314671,1.513 27.6682559,0.215226415 27.6682559,0.215226415 L8.02454569,0.215226415 C4.27095822,2.88390566 1.44067363,6.79390566 0.161537859,11.387434 C1.42975457,15.9296415 4.23402611,19.8707547 8.01523238,22.5644528 L27.6171932,22.5644528 C27.6165509,22.5641321 27.2719582,16.6202264 20.9116057,11.3871132 Z" id="Shape"></path>
                    </g>
                </g>
            </g>
        </g>
    </g>
</svg>